<?xml version="1.0" encoding="utf-8"?>
<!-- Generator: Adobe Illustrator 27.0.1, SVG Export Plug-In . SVG Version: 6.00 Build 0)  -->
<svg version="1.1" id="Layer_1" xmlns="http://www.w3.org/2000/svg" xmlns:xlink="http://www.w3.org/1999/xlink" x="0px" y="0px"
	 viewBox="0 0 58.97 58.97" style="enable-background:new 0 0 58.97 58.97;" xml:space="preserve">
<style type="text/css">
	.st0{fill:#FFE255;}
	.st1{fill:#FFCC3E;}
	.st2{fill:#FFE357;}
	.st3{fill:url(#SVGID_1_);}
	.st4{fill:#CC8232;}
	.st5{fill:#E59638;}
	.st6{fill:#FCBB47;}
	.st7{fill:#FFFFFF;fill-opacity:0.7;}
</style>
<g>
	<g>
		<circle class="st0" cx="29.49" cy="29.49" r="26.38"/>
		<circle class="st1" cx="29.49" cy="29.49" r="25.73"/>
		<circle class="st2" cx="29.49" cy="29.49" r="20.9"/>
		<linearGradient id="SVGID_1_" gradientUnits="userSpaceOnUse" x1="9.2648" y1="29.4854" x2="49.706" y2="29.4854">
			<stop  offset="0" style="stop-color:#FC802D"/>
			<stop  offset="1" style="stop-color:#FF9E5C"/>
		</linearGradient>
		<circle class="st3" cx="29.49" cy="29.49" r="20.22"/>
		<path class="st4" d="M49.71,29.49c0,0.26-0.01,0.52-0.01,0.78c-0.41-10.8-9.3-19.44-20.21-19.44S9.69,19.46,9.28,30.27
			c-0.01-0.26-0.01-0.52-0.01-0.78c0-11.17,9.05-20.22,20.22-20.22S49.71,18.32,49.71,29.49z"/>
		<path class="st5" d="M55.87,29.49c0,14.4-11.53,26.1-25.86,26.38c-0.17,0-0.35,0.01-0.52,0.01c-0.85,0-1.69-0.04-2.53-0.12
			c-1.17-0.11-2.32-0.3-3.45-0.56c-3.09-0.72-5.98-1.98-8.55-3.67c-0.64-0.42-1.26-0.87-1.86-1.35v0c-2.08-1.65-3.91-3.61-5.41-5.81
			c-0.55-0.8-1.05-1.63-1.51-2.49c-0.43-0.8-0.81-1.63-1.16-2.48c-0.37-0.92-0.69-1.86-0.96-2.83c-0.47-1.71-0.78-3.49-0.9-5.32
			c-0.04-0.58-0.06-1.16-0.06-1.74c0-0.28,0-0.55,0.01-0.83c0.03,0.82,0.09,1.63,0.19,2.43c0.22,1.75,0.6,3.45,1.14,5.07
			c0.31,0.93,0.67,1.84,1.08,2.72c0.38,0.82,0.8,1.61,1.25,2.38c0.49,0.83,1.03,1.63,1.61,2.4c1.6,2.13,3.51,4,5.66,5.56
			c0.63,0.45,1.27,0.88,1.94,1.28c2.7,1.61,5.7,2.75,8.91,3.32c1.18,0.21,2.39,0.34,3.62,0.38c0.32,0.01,0.65,0.02,0.97,0.02
			c0.76,0,1.52-0.03,2.27-0.1c13.24-1.13,23.68-12.03,24.1-25.46C55.86,28.93,55.87,29.21,55.87,29.49z"/>
		<path class="st2" d="M17.49,45.77l-4.39,4.39c-2.08-1.65-3.91-3.61-5.41-5.81l0.69-0.69l3.77-3.77
			C13.53,42.19,15.35,44.19,17.49,45.77z"/>
		<path class="st2" d="M50.16,13.1l-4.39,4.39c-1.58-2.15-3.58-3.97-5.87-5.35l4.46-4.46C46.55,9.19,48.51,11.02,50.16,13.1z"/>
		<path class="st2" d="M10.8,37.23l-4.62,4.62c-0.43-0.8-0.81-1.63-1.16-2.48l4.87-4.87C10.13,35.44,10.44,36.35,10.8,37.23z"/>
		<path class="st2" d="M41.86,6.18l-4.62,4.62c-0.88-0.37-1.79-0.67-2.73-0.91l4.87-4.87C40.23,5.36,41.05,5.75,41.86,6.18z"/>
		<path class="st2" d="M38.07,47.8l-6.32,6.32l-1.75,1.75c-0.17,0-0.35,0.01-0.52,0.01c-0.85,0-1.69-0.04-2.53-0.12l6.42-6.42
			C35.02,49.01,36.59,48.49,38.07,47.8z"/>
		<path class="st2" d="M55.87,29.49c0,0.17,0,0.35-0.01,0.52l-8.06,8.06c0.69-1.48,1.21-3.05,1.53-4.7l6.42-6.42
			C55.83,27.79,55.87,28.63,55.87,29.49z"/>
		<path class="st2" d="M9.26,29.49c0,0.6,0.03,1.19,0.08,1.78l-4.9,4.9l-0.39,0.39c-0.47-1.71-0.78-3.49-0.9-5.32l6.72-6.72
			C9.48,26.1,9.26,27.77,9.26,29.49z"/>
		<path class="st2" d="M36.55,4.06l-5.28,5.28c-0.59-0.05-1.18-0.08-1.78-0.08c-1.72,0-3.39,0.21-4.98,0.62l6.72-6.72
			C33.06,3.28,34.84,3.58,36.55,4.06z"/>
		<path class="st2" d="M29,49.7l-5.49,5.49c-3.09-0.72-5.98-1.98-8.55-3.67l1.02-1.02l3.46-3.46C22.27,48.66,25.53,49.62,29,49.7z"
			/>
		<path class="st2" d="M55.19,23.51L49.7,29c-0.08-3.48-1.04-6.73-2.66-9.56l4.48-4.48C53.21,17.53,54.47,20.42,55.19,23.51z"/>
		<path class="st6" d="M14.04,49.22l-0.94,0.94c-2.08-1.65-3.91-3.61-5.41-5.81l0.69-0.69C9.98,45.79,11.89,47.66,14.04,49.22z"/>
		<path class="st6" d="M6.77,41.26l-0.6,0.6c-0.43-0.8-0.81-1.63-1.16-2.48l0.5-0.5C5.9,39.69,6.32,40.49,6.77,41.26z"/>
		<path class="st6" d="M31.76,54.11l-1.75,1.75c-0.17,0-0.35,0.01-0.52,0.01c-0.85,0-1.69-0.04-2.53-0.12l1.56-1.56
			c0.32,0.01,0.65,0.02,0.97,0.02C30.25,54.21,31.01,54.18,31.76,54.11z"/>
		<path class="st6" d="M4.45,36.16l-0.39,0.39c-0.47-1.71-0.78-3.49-0.9-5.32l0.14-0.14C3.52,32.83,3.9,34.53,4.45,36.16z"/>
		<path class="st6" d="M24.89,53.81l-1.38,1.38c-3.09-0.72-5.98-1.98-8.55-3.67l1.02-1.02C18.68,52.11,21.68,53.25,24.89,53.81z"/>
	</g>
	<path class="st7" d="M31.28,15.42v2.78c1.11,0.18,2.03,0.55,2.73,1.11c0.71,0.56,1.38,1.41,2.03,2.56l-2.76,1.54
		c-0.83-1.51-1.92-2.27-3.26-2.27c-0.83,0-1.52,0.25-2.07,0.74c-0.55,0.49-0.82,1.11-0.82,1.84c0,0.67,0.22,1.23,0.67,1.67
		c0.43,0.43,1.31,0.95,2.64,1.54c1.14,0.52,2.09,1.01,2.83,1.47c0.75,0.46,1.31,0.9,1.69,1.32c1.07,1.15,1.6,2.55,1.6,4.18
		c0,1.61-0.48,3.02-1.45,4.25c-0.95,1.22-2.23,2.04-3.83,2.47v2.93h-2.48v-2.85c-1.85-0.3-3.26-0.94-4.24-1.91
		c-0.97-0.97-1.69-2.47-2.15-4.51l3.12-0.65c0.43,1.44,0.94,2.46,1.56,3.07c0.64,0.59,1.5,0.88,2.56,0.88
		c1.04,0,1.91-0.34,2.61-1.01c0.69-0.66,1.03-1.52,1.03-2.56c0-0.94-0.29-1.69-0.86-2.25c-0.29-0.27-0.73-0.58-1.3-0.93
		c-0.57-0.34-1.3-0.72-2.19-1.13c-1.83-0.82-3.04-1.58-3.61-2.27c-0.92-1.03-1.37-2.26-1.37-3.7c0-0.68,0.11-1.31,0.33-1.9
		c0.22-0.59,0.53-1.12,0.94-1.59c0.41-0.48,0.92-0.89,1.52-1.24c0.6-0.35,1.29-0.62,2.05-0.82v-2.78H31.28z"/>
</g>
</svg>
