<?xml version="1.0" encoding="utf-8"?>
<!-- Generator: Adobe Illustrator 27.0.1, SVG Export Plug-In . SVG Version: 6.00 Build 0)  -->
<svg version="1.1" id="Layer_1" xmlns="http://www.w3.org/2000/svg" xmlns:xlink="http://www.w3.org/1999/xlink" x="0px" y="0px"
	 viewBox="0 0 31.45 31.45" style="enable-background:new 0 0 31.45 31.45;" xml:space="preserve">
<style type="text/css">
	.st0{fill-rule:evenodd;clip-rule:evenodd;fill:#FFFFFF;}
</style>
<path class="st0" d="M19.82,7C20.63,6.98,21.45,7,22.27,7c0.1,0,0.2,0,0.34,0V2.75c-0.44-0.04-0.89-0.11-1.35-0.13
	c-0.84-0.04-1.67-0.08-2.51-0.06c-1.28,0.03-2.49,0.34-3.55,1.1c-1.21,0.87-1.88,2.1-2.13,3.54c-0.1,0.6-0.13,1.21-0.15,1.82
	c-0.02,0.95-0.01,1.9,0,2.86v0.36H8.85v4.74h4.04v11.92h4.93V17h4.02c0.21-1.58,0.41-3.14,0.62-4.76c-0.32,0-0.61,0-0.9,0
	c-1.14,0-3.77,0-3.77,0s0.01-2.35,0.04-3.37C17.87,7.47,18.7,7.04,19.82,7z"/>
</svg>
