<?xml version="1.0" encoding="utf-8"?>
<!-- Generator: Adobe Illustrator 27.0.1, SVG Export Plug-In . SVG Version: 6.00 Build 0)  -->
<svg version="1.1" id="Layer_1" xmlns="http://www.w3.org/2000/svg" xmlns:xlink="http://www.w3.org/1999/xlink" x="0px" y="0px"
	 viewBox="0 0 26.06 26.06" style="enable-background:new 0 0 26.06 26.06;" xml:space="preserve">
<style type="text/css">
	.st0{fill:#3D62A3;}
	.st1{fill-rule:evenodd;clip-rule:evenodd;fill:#FFFFFF;}
</style>
<g>
	<circle class="st0" cx="12.94" cy="12.79" r="8.5"/>
	<path class="st1" d="M14.72,8.82c0.39-0.01,0.77,0,1.16,0c0.05,0,0.09,0,0.16,0v-2c-0.21-0.02-0.42-0.05-0.64-0.06
		C15,6.73,14.6,6.71,14.21,6.72c-0.6,0.01-1.18,0.16-1.67,0.52c-0.57,0.41-0.89,0.99-1.01,1.67c-0.05,0.28-0.06,0.57-0.07,0.86
		c-0.01,0.45,0,0.9,0,1.35v0.17H9.54v2.24h1.91v5.63h2.33v-5.62h1.9c0.1-0.74,0.19-1.48,0.29-2.25c-0.15,0-0.29,0-0.43,0
		c-0.54,0-1.78,0-1.78,0s0.01-1.11,0.02-1.59C13.8,9.04,14.19,8.84,14.72,8.82z"/>
</g>
</svg>
