<?xml version="1.0" encoding="utf-8"?>
<!-- Generator: Adobe Illustrator 27.0.1, SVG Export Plug-In . SVG Version: 6.00 Build 0)  -->
<svg version="1.1" id="Layer_1" xmlns="http://www.w3.org/2000/svg" xmlns:xlink="http://www.w3.org/1999/xlink" x="0px" y="0px"
	 viewBox="0 0 539.28 56.18" style="enable-background:new 0 0 539.28 56.18;" xml:space="preserve">
<style type="text/css">
	.st0{opacity:0.65;}
	.st1{fill:url(#SVGID_1_);}
	.st2{fill:url(#SVGID_00000029723770677424253270000005225481500571678621_);}
	.st3{fill:url(#SVGID_00000064315816902797604970000012266522972176179623_);}
	.st4{fill:url(#SVGID_00000083803774271411135570000010497822583089987745_);}
	.st5{fill:url(#SVGID_00000137091894623159374420000014024154984463935415_);}
	.st6{fill:url(#SVGID_00000045595244313809644890000008142581283170549690_);}
	.st7{fill:url(#SVGID_00000001646035538287534030000011262923115810073503_);}
	.st8{fill:url(#SVGID_00000026841927881428210460000000856020055717728686_);}
	.st9{fill:url(#SVGID_00000119828123940376866060000017122297323454814598_);}
	.st10{fill:url(#SVGID_00000121986873341831208200000001379656319326746002_);}
	.st11{fill:url(#SVGID_00000067229700260888509550000001277082050952257190_);}
	.st12{fill:url(#SVGID_00000041977177585382503320000018170484015167698590_);}
	.st13{fill:url(#SVGID_00000061437027985361038050000006480029782485916576_);}
	.st14{fill:url(#SVGID_00000168084147423096141180000012525423639757356173_);}
	.st15{fill:url(#SVGID_00000075123981645793134260000003140262435555105442_);}
	.st16{fill:url(#SVGID_00000003797662255895228000000006865834789250835850_);}
	.st17{fill:url(#SVGID_00000049913933328927556290000012024540566813937078_);}
	.st18{fill:url(#SVGID_00000068666297470883746660000002469834084552113282_);}
	.st19{fill:url(#SVGID_00000158718971796609991690000014237843926515412865_);}
	.st20{fill:url(#SVGID_00000147179280249490499220000006402501505368624800_);}
	.st21{fill:url(#SVGID_00000115511169450317231380000012642619090077012149_);}
	.st22{fill:url(#SVGID_00000036246704962092251090000006911614774576222142_);}
	.st23{fill:url(#SVGID_00000003814307503011301840000014145471837213216647_);}
</style>
<g>
	<g>
		<path class="st0" d="M69.7,18.32h-2.32v-2.54c0-1.53-1.24-2.77-2.77-2.77H41c-0.53,0-1.04-0.16-1.46-0.48l-3.12-2.27
			c-0.62-0.45-1.36-0.69-2.12-0.69h-4.55c-1.53,0-2.77,1.24-2.77,2.77v29.82c0,2.45,1.99,4.44,4.44,4.44h36.63
			c1.18,0,2.3-0.46,3.14-1.3c0.84-0.84,1.3-1.95,1.3-3.14V21.1C72.48,19.57,71.23,18.32,69.7,18.32z M31.41,45.48
			c-1.83,0-3.32-1.49-3.32-3.32V12.35c0-0.91,0.74-1.66,1.66-1.66h4.55c0.53,0,1.04,0.16,1.47,0.48l3.12,2.27
			c0.62,0.45,1.36,0.69,2.12,0.69h23.61c0.91,0,1.66,0.74,1.66,1.66v2.54H37.5c-1.53,0-2.77,1.24-2.77,2.77v21.07
			C34.73,44,33.24,45.48,31.41,45.48z M71.36,42.17c0,0.89-0.34,1.72-0.97,2.35c-0.63,0.63-1.46,0.97-2.35,0.97H34.36
			c0.92-0.81,1.49-2,1.49-3.32V21.1c0-0.91,0.74-1.66,1.66-1.66h32.2c0.91,0,1.66,0.74,1.66,1.66V42.17z"/>
		<g>
			<g>
				<linearGradient id="SVGID_1_" gradientUnits="userSpaceOnUse" x1="44.3119" y1="33.0954" x2="62.929" y2="33.0954">
					<stop  offset="0" style="stop-color:#2A127D"/>
					<stop  offset="0.1392" style="stop-color:#2F1386"/>
					<stop  offset="0.3657" style="stop-color:#3B159E"/>
					<stop  offset="0.6513" style="stop-color:#4F18C6"/>
					<stop  offset="0.9819" style="stop-color:#6B1DFC"/>
					<stop  offset="1" style="stop-color:#6D1DFF"/>
				</linearGradient>
				<path class="st1" d="M51.01,37.59c0,0.1-0.01,0.18-0.02,0.25c-0.01,0.07-0.03,0.13-0.05,0.18s-0.05,0.08-0.09,0.1
					c-0.03,0.02-0.07,0.03-0.12,0.03h-5.97c-0.14,0-0.25-0.04-0.33-0.12c-0.08-0.08-0.12-0.22-0.12-0.4v-0.29
					c0-0.07,0-0.13,0.01-0.19s0.02-0.12,0.05-0.18c0.03-0.07,0.06-0.14,0.11-0.22s0.1-0.18,0.17-0.29l4.66-7.3h-4.61
					c-0.05,0-0.1-0.01-0.13-0.03c-0.04-0.02-0.07-0.05-0.09-0.1c-0.02-0.04-0.04-0.1-0.05-0.17c-0.01-0.07-0.02-0.15-0.02-0.25
					c0-0.1,0-0.19,0.02-0.27c0.01-0.07,0.03-0.13,0.05-0.18s0.05-0.08,0.09-0.1c0.04-0.02,0.08-0.03,0.13-0.03h5.62
					c0.14,0,0.25,0.04,0.33,0.12c0.08,0.08,0.12,0.2,0.12,0.37v0.3c0,0.08-0.01,0.16-0.02,0.22c-0.01,0.07-0.03,0.13-0.05,0.2
					c-0.03,0.07-0.06,0.14-0.11,0.22c-0.04,0.08-0.1,0.17-0.18,0.27l-4.64,7.27h4.94c0.09,0,0.16,0.04,0.2,0.13
					S51.01,37.38,51.01,37.59z"/>
				
					<linearGradient id="SVGID_00000029011954972793053050000018245239368109257130_" gradientUnits="userSpaceOnUse" x1="44.3119" y1="33.0954" x2="62.929" y2="33.0954">
					<stop  offset="0" style="stop-color:#2A127D"/>
					<stop  offset="0.1392" style="stop-color:#2F1386"/>
					<stop  offset="0.3657" style="stop-color:#3B159E"/>
					<stop  offset="0.6513" style="stop-color:#4F18C6"/>
					<stop  offset="0.9819" style="stop-color:#6B1DFC"/>
					<stop  offset="1" style="stop-color:#6D1DFF"/>
				</linearGradient>
				<path style="fill:url(#SVGID_00000029011954972793053050000018245239368109257130_);" d="M54.03,37.95
					c0,0.04-0.01,0.08-0.03,0.11c-0.02,0.03-0.06,0.06-0.11,0.07c-0.05,0.02-0.12,0.03-0.21,0.05c-0.09,0.01-0.19,0.02-0.32,0.02
					c-0.12,0-0.23-0.01-0.32-0.02c-0.09-0.01-0.16-0.03-0.21-0.05c-0.05-0.02-0.09-0.04-0.11-0.07c-0.02-0.03-0.03-0.07-0.03-0.11
					v-9.7c0-0.04,0.01-0.08,0.04-0.11s0.06-0.06,0.12-0.07c0.05-0.02,0.12-0.03,0.21-0.05c0.09-0.01,0.19-0.02,0.31-0.02
					c0.13,0,0.24,0.01,0.32,0.02c0.09,0.01,0.15,0.03,0.21,0.05c0.05,0.02,0.09,0.04,0.11,0.07c0.02,0.03,0.03,0.07,0.03,0.11V37.95
					z"/>
				
					<linearGradient id="SVGID_00000127742628378771193570000004561816227069311156_" gradientUnits="userSpaceOnUse" x1="44.3119" y1="33.0954" x2="62.929" y2="33.0954">
					<stop  offset="0" style="stop-color:#2A127D"/>
					<stop  offset="0.1392" style="stop-color:#2F1386"/>
					<stop  offset="0.3657" style="stop-color:#3B159E"/>
					<stop  offset="0.6513" style="stop-color:#4F18C6"/>
					<stop  offset="0.9819" style="stop-color:#6B1DFC"/>
					<stop  offset="1" style="stop-color:#6D1DFF"/>
				</linearGradient>
				<path style="fill:url(#SVGID_00000127742628378771193570000004561816227069311156_);" d="M62.93,31c0,0.5-0.08,0.96-0.25,1.37
					c-0.17,0.41-0.41,0.75-0.71,1.04c-0.31,0.29-0.69,0.51-1.14,0.66c-0.45,0.16-0.99,0.23-1.61,0.23h-1.15v3.64
					c0,0.04-0.01,0.08-0.04,0.11s-0.06,0.06-0.11,0.07c-0.05,0.02-0.12,0.03-0.2,0.05c-0.09,0.01-0.19,0.02-0.32,0.02
					c-0.13,0-0.24-0.01-0.32-0.02c-0.09-0.01-0.16-0.03-0.21-0.05c-0.05-0.02-0.09-0.04-0.11-0.07c-0.02-0.03-0.03-0.07-0.03-0.11
					v-9.33c0-0.21,0.05-0.36,0.16-0.45c0.11-0.09,0.23-0.13,0.37-0.13h2.16c0.22,0,0.43,0.01,0.63,0.03
					c0.2,0.02,0.44,0.06,0.71,0.12c0.27,0.06,0.55,0.17,0.84,0.34c0.28,0.16,0.52,0.37,0.72,0.61c0.2,0.24,0.35,0.52,0.46,0.83
					C62.88,30.27,62.93,30.62,62.93,31z M61.51,31.11c0-0.41-0.08-0.75-0.23-1.03c-0.15-0.28-0.34-0.48-0.57-0.62
					s-0.46-0.22-0.7-0.26s-0.48-0.05-0.71-0.05h-1.24v4.05h1.21c0.41,0,0.74-0.05,1.01-0.16c0.27-0.1,0.49-0.25,0.68-0.43
					c0.18-0.18,0.32-0.41,0.41-0.66C61.47,31.69,61.51,31.41,61.51,31.11z"/>
			</g>
		</g>
	</g>
	<g>
		<path class="st0" d="M132.54,18.32h-2.32v-2.54c0-1.53-1.24-2.77-2.77-2.77h-23.61c-0.53,0-1.04-0.16-1.46-0.48l-3.12-2.27
			c-0.62-0.45-1.36-0.69-2.12-0.69h-4.55c-1.53,0-2.77,1.24-2.77,2.77v29.82c0,2.45,1.99,4.44,4.44,4.44h36.63
			c1.18,0,2.3-0.46,3.14-1.3c0.84-0.84,1.3-1.95,1.3-3.14V21.1C135.31,19.57,134.07,18.32,132.54,18.32z M94.24,45.48
			c-1.83,0-3.32-1.49-3.32-3.32V12.35c0-0.91,0.74-1.66,1.66-1.66h4.55c0.53,0,1.04,0.16,1.47,0.48l3.12,2.27
			c0.62,0.45,1.36,0.69,2.12,0.69h23.61c0.91,0,1.66,0.74,1.66,1.66v2.54h-28.76c-1.53,0-2.77,1.24-2.77,2.77v21.07
			C97.56,44,96.07,45.48,94.24,45.48z M134.19,42.17c0,0.89-0.34,1.72-0.97,2.35c-0.63,0.63-1.46,0.97-2.35,0.97H97.19
			c0.92-0.81,1.49-2,1.49-3.32V21.1c0-0.91,0.74-1.66,1.66-1.66h32.2c0.91,0,1.66,0.74,1.66,1.66V42.17z"/>
		<g>
			<g>
				
					<linearGradient id="SVGID_00000160154649559764603520000005401831835670109324_" gradientUnits="userSpaceOnUse" x1="104.0692" y1="33.0954" x2="128.8817" y2="33.0954">
					<stop  offset="0" style="stop-color:#2A127D"/>
					<stop  offset="0.1392" style="stop-color:#2F1386"/>
					<stop  offset="0.3657" style="stop-color:#3B159E"/>
					<stop  offset="0.6513" style="stop-color:#4F18C6"/>
					<stop  offset="0.9819" style="stop-color:#6B1DFC"/>
					<stop  offset="1" style="stop-color:#6D1DFF"/>
				</linearGradient>
				<path style="fill:url(#SVGID_00000160154649559764603520000005401831835670109324_);" d="M110.29,35.31
					c0,0.47-0.09,0.9-0.26,1.27c-0.17,0.37-0.42,0.68-0.73,0.94c-0.31,0.26-0.67,0.45-1.09,0.58c-0.42,0.13-0.87,0.2-1.36,0.2
					c-0.34,0-0.65-0.03-0.94-0.09s-0.55-0.13-0.77-0.21c-0.23-0.08-0.42-0.17-0.57-0.26c-0.15-0.09-0.26-0.16-0.32-0.23
					c-0.06-0.06-0.1-0.14-0.13-0.24c-0.03-0.1-0.04-0.22-0.04-0.39c0-0.11,0-0.21,0.02-0.29c0.01-0.08,0.03-0.14,0.05-0.18
					c0.02-0.05,0.05-0.08,0.08-0.1c0.03-0.02,0.07-0.03,0.11-0.03c0.07,0,0.18,0.04,0.31,0.13c0.13,0.09,0.3,0.19,0.51,0.29
					c0.21,0.1,0.46,0.2,0.75,0.29c0.29,0.09,0.63,0.14,1.02,0.14c0.29,0,0.56-0.04,0.8-0.12s0.45-0.19,0.62-0.33
					c0.17-0.14,0.31-0.32,0.4-0.53c0.09-0.21,0.14-0.45,0.14-0.71c0-0.29-0.07-0.53-0.2-0.73c-0.13-0.2-0.3-0.38-0.52-0.54
					c-0.21-0.15-0.46-0.29-0.73-0.42c-0.27-0.13-0.55-0.26-0.84-0.39c-0.29-0.13-0.57-0.28-0.84-0.44
					c-0.27-0.16-0.51-0.35-0.73-0.57c-0.21-0.22-0.39-0.47-0.52-0.77c-0.13-0.29-0.2-0.65-0.2-1.06c0-0.42,0.08-0.8,0.23-1.13
					c0.15-0.33,0.37-0.61,0.64-0.83c0.27-0.22,0.6-0.39,0.98-0.51c0.38-0.12,0.79-0.18,1.22-0.18c0.22,0,0.45,0.02,0.68,0.06
					s0.44,0.09,0.64,0.16c0.2,0.07,0.38,0.14,0.54,0.22c0.16,0.08,0.26,0.15,0.31,0.2c0.05,0.05,0.08,0.09,0.1,0.12
					c0.02,0.03,0.03,0.07,0.04,0.11c0.01,0.04,0.02,0.1,0.02,0.16c0,0.06,0.01,0.14,0.01,0.24c0,0.09,0,0.18-0.01,0.25
					c-0.01,0.07-0.02,0.13-0.04,0.18c-0.02,0.05-0.04,0.09-0.07,0.11c-0.03,0.02-0.06,0.04-0.1,0.04c-0.06,0-0.15-0.04-0.27-0.11
					c-0.12-0.07-0.27-0.15-0.45-0.25c-0.18-0.09-0.39-0.17-0.63-0.25c-0.24-0.08-0.51-0.11-0.82-0.11c-0.28,0-0.53,0.04-0.73,0.11
					c-0.21,0.08-0.38,0.18-0.52,0.3c-0.14,0.12-0.24,0.27-0.3,0.45c-0.07,0.17-0.1,0.35-0.1,0.55c0,0.28,0.06,0.52,0.2,0.73
					c0.13,0.2,0.3,0.38,0.52,0.54c0.22,0.16,0.46,0.3,0.74,0.43c0.28,0.13,0.56,0.26,0.84,0.39c0.29,0.13,0.57,0.28,0.84,0.44
					c0.28,0.16,0.52,0.35,0.74,0.56c0.22,0.22,0.39,0.47,0.52,0.77C110.22,34.57,110.29,34.91,110.29,35.31z"/>
				
					<linearGradient id="SVGID_00000181767777372140765220000011269727384312905919_" gradientUnits="userSpaceOnUse" x1="104.0692" y1="33.0954" x2="128.8817" y2="33.0954">
					<stop  offset="0" style="stop-color:#2A127D"/>
					<stop  offset="0.1392" style="stop-color:#2F1386"/>
					<stop  offset="0.3657" style="stop-color:#3B159E"/>
					<stop  offset="0.6513" style="stop-color:#4F18C6"/>
					<stop  offset="0.9819" style="stop-color:#6B1DFC"/>
					<stop  offset="1" style="stop-color:#6D1DFF"/>
				</linearGradient>
				<path style="fill:url(#SVGID_00000181767777372140765220000011269727384312905919_);" d="M116.3,37.92
					c-0.02,0.06-0.05,0.1-0.09,0.14c-0.04,0.04-0.09,0.07-0.15,0.09c-0.07,0.02-0.15,0.04-0.25,0.04s-0.23,0.01-0.38,0.01
					c-0.11,0-0.21,0-0.3,0s-0.16-0.01-0.22-0.02s-0.12-0.02-0.16-0.04c-0.04-0.01-0.08-0.03-0.11-0.05
					c-0.03-0.02-0.06-0.04-0.07-0.07c-0.02-0.03-0.04-0.06-0.05-0.11l-3.3-9.39c-0.04-0.11-0.06-0.21-0.07-0.28
					c0-0.07,0.02-0.12,0.07-0.16c0.05-0.04,0.12-0.06,0.23-0.07c0.1-0.01,0.24-0.02,0.42-0.02c0.15,0,0.26,0,0.35,0.01
					s0.15,0.02,0.2,0.04c0.05,0.02,0.08,0.05,0.11,0.08c0.02,0.03,0.05,0.08,0.07,0.13l2.9,8.51h0.01l2.82-8.49
					c0.02-0.06,0.03-0.1,0.05-0.14c0.02-0.04,0.06-0.06,0.11-0.09c0.05-0.02,0.12-0.04,0.22-0.04s0.22-0.01,0.38-0.01
					c0.16,0,0.29,0.01,0.38,0.02c0.09,0.01,0.16,0.04,0.19,0.07c0.03,0.04,0.05,0.09,0.04,0.16s-0.03,0.16-0.07,0.28L116.3,37.92z"
					/>
				
					<linearGradient id="SVGID_00000104703428827574226920000014219849829007219876_" gradientUnits="userSpaceOnUse" x1="104.0692" y1="33.0954" x2="128.8817" y2="33.0954">
					<stop  offset="0" style="stop-color:#2A127D"/>
					<stop  offset="0.1392" style="stop-color:#2F1386"/>
					<stop  offset="0.3657" style="stop-color:#3B159E"/>
					<stop  offset="0.6513" style="stop-color:#4F18C6"/>
					<stop  offset="0.9819" style="stop-color:#6B1DFC"/>
					<stop  offset="1" style="stop-color:#6D1DFF"/>
				</linearGradient>
				<path style="fill:url(#SVGID_00000104703428827574226920000014219849829007219876_);" d="M128.88,29.42
					c0,0.1-0.01,0.19-0.02,0.26c-0.01,0.08-0.03,0.14-0.05,0.19c-0.02,0.05-0.05,0.08-0.08,0.11c-0.03,0.02-0.07,0.03-0.1,0.03
					c-0.06,0-0.17-0.05-0.31-0.15c-0.15-0.1-0.34-0.21-0.59-0.33c-0.25-0.12-0.54-0.23-0.88-0.33c-0.34-0.1-0.75-0.15-1.21-0.15
					c-0.56,0-1.06,0.1-1.5,0.3c-0.44,0.2-0.82,0.48-1.12,0.84c-0.31,0.36-0.54,0.79-0.71,1.28c-0.16,0.5-0.25,1.03-0.25,1.61
					c0,0.65,0.09,1.22,0.27,1.72s0.43,0.92,0.75,1.27c0.32,0.34,0.7,0.6,1.14,0.78c0.44,0.18,0.92,0.27,1.45,0.27
					c0.31,0,0.63-0.04,0.95-0.11c0.32-0.08,0.62-0.19,0.89-0.34v-2.95h-2.34c-0.09,0-0.16-0.04-0.2-0.13
					c-0.04-0.09-0.07-0.23-0.07-0.41c0-0.1,0-0.18,0.02-0.25c0.01-0.07,0.03-0.13,0.05-0.17c0.02-0.04,0.05-0.08,0.08-0.1
					c0.03-0.02,0.07-0.03,0.12-0.03h3.21c0.06,0,0.11,0.01,0.17,0.03c0.06,0.02,0.11,0.05,0.16,0.09c0.05,0.04,0.08,0.1,0.11,0.17
					c0.03,0.07,0.04,0.16,0.04,0.25v3.85c0,0.14-0.02,0.25-0.07,0.35c-0.05,0.1-0.15,0.19-0.3,0.26c-0.15,0.08-0.35,0.16-0.59,0.25
					c-0.24,0.09-0.49,0.16-0.74,0.23c-0.26,0.06-0.51,0.11-0.77,0.14c-0.26,0.03-0.52,0.05-0.77,0.05c-0.78,0-1.48-0.12-2.09-0.36
					c-0.61-0.24-1.13-0.59-1.56-1.04c-0.42-0.45-0.75-0.98-0.97-1.61c-0.22-0.62-0.34-1.32-0.34-2.09c0-0.8,0.12-1.53,0.36-2.18
					c0.24-0.65,0.58-1.21,1.02-1.66c0.44-0.46,0.97-0.81,1.59-1.07c0.62-0.25,1.3-0.38,2.05-0.38c0.39,0,0.75,0.03,1.09,0.1
					c0.34,0.07,0.64,0.15,0.9,0.24c0.26,0.09,0.48,0.19,0.66,0.3c0.18,0.11,0.3,0.19,0.37,0.26c0.07,0.07,0.11,0.15,0.14,0.23
					C128.87,29.12,128.88,29.25,128.88,29.42z"/>
			</g>
		</g>
	</g>
	<g>
		<path class="st0" d="M195.37,18.32h-2.32v-2.54c0-1.53-1.24-2.77-2.77-2.77h-23.61c-0.53,0-1.04-0.16-1.46-0.48l-3.12-2.27
			c-0.62-0.45-1.36-0.69-2.12-0.69h-4.55c-1.53,0-2.77,1.24-2.77,2.77v29.82c0,2.45,1.99,4.44,4.44,4.44h36.63
			c1.18,0,2.3-0.46,3.14-1.3c0.84-0.84,1.3-1.95,1.3-3.14V21.1C198.14,19.57,196.9,18.32,195.37,18.32z M157.08,45.48
			c-1.83,0-3.32-1.49-3.32-3.32V12.35c0-0.91,0.74-1.66,1.66-1.66h4.55c0.53,0,1.04,0.16,1.47,0.48l3.12,2.27
			c0.62,0.45,1.36,0.69,2.12,0.69h23.61c0.91,0,1.66,0.74,1.66,1.66v2.54h-28.76c-1.53,0-2.77,1.24-2.77,2.77v21.07
			C160.39,44,158.9,45.48,157.08,45.48z M197.02,42.17c0,0.89-0.34,1.72-0.97,2.35c-0.63,0.63-1.46,0.97-2.35,0.97h-33.69
			c0.92-0.81,1.49-2,1.49-3.32V21.1c0-0.91,0.74-1.66,1.66-1.66h32.2c0.91,0,1.66,0.74,1.66,1.66V42.17z"/>
		<g>
			<g>
				
					<linearGradient id="SVGID_00000161631361239613128850000015701710246071720578_" gradientUnits="userSpaceOnUse" x1="166.1668" y1="33.0954" x2="192.3543" y2="33.0954">
					<stop  offset="0" style="stop-color:#2A127D"/>
					<stop  offset="0.1392" style="stop-color:#2F1386"/>
					<stop  offset="0.3657" style="stop-color:#3B159E"/>
					<stop  offset="0.6513" style="stop-color:#4F18C6"/>
					<stop  offset="0.9819" style="stop-color:#6B1DFC"/>
					<stop  offset="1" style="stop-color:#6D1DFF"/>
				</linearGradient>
				<path style="fill:url(#SVGID_00000161631361239613128850000015701710246071720578_);" d="M172.38,31c0,0.51-0.08,0.96-0.25,1.37
					c-0.17,0.41-0.41,0.75-0.71,1.04c-0.31,0.29-0.69,0.51-1.14,0.66c-0.45,0.16-0.99,0.23-1.61,0.23h-1.15v3.64
					c0,0.04-0.01,0.08-0.04,0.11s-0.06,0.06-0.11,0.07c-0.05,0.02-0.12,0.03-0.2,0.05s-0.19,0.02-0.32,0.02
					c-0.13,0-0.24-0.01-0.32-0.02s-0.16-0.03-0.21-0.05c-0.05-0.02-0.09-0.04-0.11-0.07c-0.02-0.03-0.03-0.07-0.03-0.11v-9.33
					c0-0.21,0.05-0.36,0.16-0.45c0.11-0.09,0.23-0.13,0.37-0.13h2.16c0.22,0,0.43,0.01,0.63,0.03c0.2,0.02,0.44,0.06,0.71,0.12
					c0.27,0.06,0.55,0.17,0.84,0.34c0.28,0.16,0.52,0.37,0.72,0.61c0.2,0.24,0.35,0.52,0.46,0.83
					C172.32,30.27,172.38,30.62,172.38,31z M170.96,31.11c0-0.41-0.08-0.75-0.23-1.03c-0.15-0.28-0.34-0.48-0.57-0.62
					c-0.23-0.13-0.46-0.22-0.7-0.26c-0.24-0.04-0.48-0.05-0.71-0.05h-1.24v4.05h1.21c0.41,0,0.74-0.05,1.01-0.16
					c0.27-0.1,0.49-0.25,0.68-0.43c0.18-0.18,0.32-0.41,0.41-0.66C170.92,31.69,170.96,31.41,170.96,31.11z"/>
				
					<linearGradient id="SVGID_00000044152561239286675140000015685491063943341465_" gradientUnits="userSpaceOnUse" x1="166.1668" y1="33.0954" x2="192.3543" y2="33.0954">
					<stop  offset="0" style="stop-color:#2A127D"/>
					<stop  offset="0.1392" style="stop-color:#2F1386"/>
					<stop  offset="0.3657" style="stop-color:#3B159E"/>
					<stop  offset="0.6513" style="stop-color:#4F18C6"/>
					<stop  offset="0.9819" style="stop-color:#6B1DFC"/>
					<stop  offset="1" style="stop-color:#6D1DFF"/>
				</linearGradient>
				<path style="fill:url(#SVGID_00000044152561239286675140000015685491063943341465_);" d="M182.07,37.6
					c0,0.1-0.02,0.19-0.05,0.27c-0.03,0.07-0.08,0.13-0.14,0.18s-0.12,0.08-0.19,0.1c-0.07,0.02-0.14,0.03-0.21,0.03h-0.44
					c-0.14,0-0.26-0.01-0.37-0.04s-0.2-0.08-0.3-0.16c-0.09-0.08-0.19-0.18-0.28-0.31c-0.09-0.13-0.19-0.3-0.3-0.5l-3.08-5.75
					c-0.16-0.3-0.32-0.61-0.49-0.93c-0.16-0.33-0.32-0.64-0.46-0.95h-0.02c0.01,0.38,0.02,0.76,0.02,1.15
					c0,0.39,0.01,0.78,0.01,1.16v6.1c0,0.04-0.01,0.07-0.03,0.11c-0.02,0.03-0.06,0.06-0.11,0.08c-0.05,0.02-0.12,0.03-0.21,0.05
					c-0.08,0.01-0.19,0.02-0.33,0.02c-0.13,0-0.24-0.01-0.33-0.02c-0.08-0.01-0.15-0.03-0.2-0.05c-0.05-0.02-0.09-0.04-0.11-0.08
					c-0.02-0.03-0.03-0.07-0.03-0.11v-9.33c0-0.21,0.06-0.36,0.18-0.45c0.12-0.09,0.25-0.13,0.39-0.13h0.66
					c0.16,0,0.29,0.01,0.39,0.04c0.1,0.03,0.2,0.07,0.28,0.13c0.08,0.06,0.16,0.14,0.24,0.25c0.08,0.11,0.16,0.24,0.25,0.4
					l2.37,4.44c0.15,0.27,0.29,0.54,0.42,0.79c0.14,0.26,0.27,0.51,0.39,0.76c0.13,0.25,0.25,0.5,0.37,0.74s0.25,0.49,0.37,0.73
					h0.01c-0.01-0.41-0.02-0.84-0.02-1.29c0-0.45,0-0.87,0-1.29v-5.48c0-0.04,0.01-0.07,0.03-0.1c0.02-0.03,0.06-0.06,0.11-0.08
					s0.12-0.04,0.21-0.05c0.08-0.01,0.2-0.02,0.33-0.02c0.12,0,0.23,0.01,0.31,0.02c0.09,0.01,0.16,0.03,0.21,0.05
					s0.09,0.05,0.11,0.08c0.02,0.03,0.03,0.07,0.03,0.1V37.6z"/>
				
					<linearGradient id="SVGID_00000124877801083176406320000011199070552907211943_" gradientUnits="userSpaceOnUse" x1="166.1668" y1="33.0954" x2="192.3543" y2="33.0954">
					<stop  offset="0" style="stop-color:#2A127D"/>
					<stop  offset="0.1392" style="stop-color:#2F1386"/>
					<stop  offset="0.3657" style="stop-color:#3B159E"/>
					<stop  offset="0.6513" style="stop-color:#4F18C6"/>
					<stop  offset="0.9819" style="stop-color:#6B1DFC"/>
					<stop  offset="1" style="stop-color:#6D1DFF"/>
				</linearGradient>
				<path style="fill:url(#SVGID_00000124877801083176406320000011199070552907211943_);" d="M192.35,29.42
					c0,0.1-0.01,0.19-0.02,0.26c-0.01,0.08-0.03,0.14-0.05,0.19c-0.02,0.05-0.05,0.08-0.08,0.11c-0.03,0.02-0.07,0.03-0.1,0.03
					c-0.06,0-0.17-0.05-0.31-0.15c-0.15-0.1-0.34-0.21-0.59-0.33c-0.25-0.12-0.54-0.23-0.88-0.33c-0.34-0.1-0.75-0.15-1.21-0.15
					c-0.56,0-1.06,0.1-1.5,0.3c-0.44,0.2-0.82,0.48-1.12,0.84c-0.31,0.36-0.54,0.79-0.71,1.28c-0.16,0.5-0.25,1.03-0.25,1.61
					c0,0.65,0.09,1.22,0.27,1.72s0.43,0.92,0.75,1.27c0.32,0.34,0.7,0.6,1.14,0.78c0.44,0.18,0.92,0.27,1.45,0.27
					c0.31,0,0.63-0.04,0.95-0.11c0.32-0.08,0.62-0.19,0.89-0.34v-2.95h-2.34c-0.09,0-0.16-0.04-0.2-0.13
					c-0.04-0.09-0.07-0.23-0.07-0.41c0-0.1,0-0.18,0.02-0.25c0.01-0.07,0.03-0.13,0.05-0.17c0.02-0.04,0.05-0.08,0.08-0.1
					c0.03-0.02,0.07-0.03,0.12-0.03h3.21c0.06,0,0.11,0.01,0.17,0.03c0.06,0.02,0.11,0.05,0.16,0.09c0.05,0.04,0.08,0.1,0.11,0.17
					c0.03,0.07,0.04,0.16,0.04,0.25v3.85c0,0.14-0.02,0.25-0.07,0.35c-0.05,0.1-0.15,0.19-0.3,0.26c-0.15,0.08-0.35,0.16-0.59,0.25
					c-0.24,0.09-0.49,0.16-0.74,0.23c-0.26,0.06-0.51,0.11-0.77,0.14c-0.26,0.03-0.52,0.05-0.77,0.05c-0.78,0-1.48-0.12-2.09-0.36
					c-0.61-0.24-1.13-0.59-1.56-1.04c-0.42-0.45-0.75-0.98-0.97-1.61c-0.22-0.62-0.34-1.32-0.34-2.09c0-0.8,0.12-1.53,0.36-2.18
					c0.24-0.65,0.58-1.21,1.02-1.66c0.44-0.46,0.97-0.81,1.59-1.07c0.62-0.25,1.3-0.38,2.05-0.38c0.39,0,0.75,0.03,1.09,0.1
					c0.34,0.07,0.64,0.15,0.9,0.24c0.26,0.09,0.48,0.19,0.66,0.3c0.18,0.11,0.3,0.19,0.37,0.26c0.07,0.07,0.11,0.15,0.14,0.23
					C192.34,29.12,192.35,29.25,192.35,29.42z"/>
			</g>
		</g>
	</g>
	<g>
		<path class="st0" d="M258.2,18.32h-2.32v-2.54c0-1.53-1.24-2.77-2.77-2.77H229.5c-0.53,0-1.04-0.16-1.46-0.48l-3.12-2.27
			c-0.62-0.45-1.36-0.69-2.12-0.69h-4.55c-1.53,0-2.77,1.24-2.77,2.77v29.82c0,2.45,1.99,4.44,4.44,4.44h36.63
			c1.18,0,2.3-0.46,3.14-1.3c0.84-0.84,1.3-1.95,1.3-3.14V21.1C260.97,19.57,259.73,18.32,258.2,18.32z M219.91,45.48
			c-1.83,0-3.32-1.49-3.32-3.32V12.35c0-0.91,0.74-1.66,1.66-1.66h4.55c0.53,0,1.04,0.16,1.47,0.48l3.12,2.27
			c0.62,0.45,1.36,0.69,2.12,0.69h23.61c0.91,0,1.66,0.74,1.66,1.66v2.54H226c-1.53,0-2.77,1.24-2.77,2.77v21.07
			C223.22,44,221.74,45.48,219.91,45.48z M259.85,42.17c0,0.89-0.34,1.72-0.97,2.35c-0.63,0.63-1.46,0.97-2.35,0.97h-33.69
			c0.92-0.81,1.49-2,1.49-3.32V21.1c0-0.91,0.74-1.66,1.66-1.66h32.2c0.91,0,1.66,0.74,1.66,1.66V42.17z"/>
		<g>
			<g>
				
					<linearGradient id="SVGID_00000022550024917412218790000006782882393260690102_" gradientUnits="userSpaceOnUse" x1="236.3311" y1="33.0954" x2="247.9994" y2="33.0954">
					<stop  offset="0" style="stop-color:#2A127D"/>
					<stop  offset="0.1392" style="stop-color:#2F1386"/>
					<stop  offset="0.3657" style="stop-color:#3B159E"/>
					<stop  offset="0.6513" style="stop-color:#4F18C6"/>
					<stop  offset="0.9819" style="stop-color:#6B1DFC"/>
					<stop  offset="1" style="stop-color:#6D1DFF"/>
				</linearGradient>
				<path style="fill:url(#SVGID_00000022550024917412218790000006782882393260690102_);" d="M244.97,37.67
					c0.04,0.12,0.06,0.21,0.07,0.28c0,0.07-0.02,0.12-0.06,0.16c-0.04,0.04-0.11,0.06-0.21,0.07c-0.1,0.01-0.23,0.02-0.39,0.02
					c-0.16,0-0.29,0-0.39-0.01c-0.1-0.01-0.17-0.02-0.22-0.04c-0.05-0.02-0.09-0.04-0.11-0.07s-0.05-0.07-0.07-0.12l-0.87-2.46h-4.2
					l-0.83,2.43c-0.02,0.05-0.04,0.09-0.06,0.12c-0.03,0.03-0.06,0.06-0.11,0.09c-0.05,0.02-0.12,0.04-0.21,0.05
					c-0.09,0.01-0.21,0.02-0.36,0.02c-0.15,0-0.27-0.01-0.37-0.02c-0.1-0.01-0.16-0.04-0.2-0.07c-0.04-0.04-0.06-0.09-0.05-0.16
					c0-0.07,0.02-0.16,0.07-0.28l3.39-9.39c0.02-0.06,0.05-0.1,0.08-0.14c0.03-0.04,0.08-0.06,0.15-0.09
					c0.06-0.02,0.15-0.04,0.25-0.04s0.23-0.01,0.39-0.01c0.17,0,0.3,0,0.41,0.01s0.2,0.02,0.27,0.04c0.07,0.02,0.12,0.05,0.16,0.09
					c0.04,0.04,0.06,0.09,0.09,0.14L244.97,37.67z M240.62,29.38L240.62,29.38l-1.75,5.04h3.52L240.62,29.38z"/>
				
					<linearGradient id="SVGID_00000092445828328335870630000016768953091524560051_" gradientUnits="userSpaceOnUse" x1="236.3311" y1="33.0954" x2="247.9994" y2="33.0954">
					<stop  offset="0" style="stop-color:#2A127D"/>
					<stop  offset="0.1392" style="stop-color:#2F1386"/>
					<stop  offset="0.3657" style="stop-color:#3B159E"/>
					<stop  offset="0.6513" style="stop-color:#4F18C6"/>
					<stop  offset="0.9819" style="stop-color:#6B1DFC"/>
					<stop  offset="1" style="stop-color:#6D1DFF"/>
				</linearGradient>
				<path style="fill:url(#SVGID_00000092445828328335870630000016768953091524560051_);" d="M248,37.95c0,0.04-0.01,0.08-0.03,0.11
					c-0.02,0.03-0.06,0.06-0.11,0.07c-0.05,0.02-0.12,0.03-0.21,0.05s-0.19,0.02-0.32,0.02c-0.12,0-0.23-0.01-0.32-0.02
					c-0.09-0.01-0.16-0.03-0.21-0.05c-0.05-0.02-0.09-0.04-0.11-0.07c-0.02-0.03-0.03-0.07-0.03-0.11v-9.7
					c0-0.04,0.01-0.08,0.04-0.11s0.06-0.06,0.12-0.07c0.05-0.02,0.12-0.03,0.21-0.05c0.09-0.01,0.19-0.02,0.31-0.02
					c0.13,0,0.24,0.01,0.32,0.02c0.09,0.01,0.15,0.03,0.21,0.05c0.05,0.02,0.09,0.04,0.11,0.07c0.02,0.03,0.03,0.07,0.03,0.11V37.95
					z"/>
			</g>
		</g>
	</g>
	<g>
		<path class="st0" d="M321.03,18.32h-2.32v-2.54c0-1.53-1.24-2.77-2.77-2.77h-23.61c-0.53,0-1.04-0.16-1.46-0.48l-3.12-2.27
			c-0.62-0.45-1.36-0.69-2.12-0.69h-4.55c-1.53,0-2.77,1.24-2.77,2.77v29.82c0,2.45,1.99,4.44,4.44,4.44h36.63
			c1.18,0,2.3-0.46,3.14-1.3c0.84-0.84,1.3-1.95,1.3-3.14V21.1C323.81,19.57,322.56,18.32,321.03,18.32z M282.74,45.48
			c-1.83,0-3.32-1.49-3.32-3.32V12.35c0-0.91,0.74-1.66,1.66-1.66h4.55c0.53,0,1.04,0.16,1.47,0.48l3.12,2.27
			c0.62,0.45,1.36,0.69,2.12,0.69h23.61c0.91,0,1.66,0.74,1.66,1.66v2.54h-28.76c-1.53,0-2.77,1.24-2.77,2.77v21.07
			C286.06,44,284.57,45.48,282.74,45.48z M322.69,42.17c0,0.89-0.34,1.72-0.97,2.35c-0.63,0.63-1.46,0.97-2.35,0.97h-33.69
			c0.92-0.81,1.49-2,1.49-3.32V21.1c0-0.91,0.74-1.66,1.66-1.66h32.2c0.91,0,1.66,0.74,1.66,1.66V42.17z"/>
		<g>
			<g>
				
					<linearGradient id="SVGID_00000075851737954410421690000000815174647253553082_" gradientUnits="userSpaceOnUse" x1="294.1229" y1="33.0954" x2="315.6307" y2="33.0954">
					<stop  offset="0" style="stop-color:#2A127D"/>
					<stop  offset="0.1392" style="stop-color:#2F1386"/>
					<stop  offset="0.3657" style="stop-color:#3B159E"/>
					<stop  offset="0.6513" style="stop-color:#4F18C6"/>
					<stop  offset="0.9819" style="stop-color:#6B1DFC"/>
					<stop  offset="1" style="stop-color:#6D1DFF"/>
				</linearGradient>
				<path style="fill:url(#SVGID_00000075851737954410421690000000815174647253553082_);" d="M299.75,37.6
					c0,0.09-0.01,0.18-0.02,0.25c-0.01,0.07-0.03,0.13-0.05,0.18c-0.03,0.05-0.06,0.08-0.09,0.1c-0.03,0.02-0.07,0.03-0.11,0.03
					h-4.85c-0.12,0-0.23-0.04-0.34-0.12c-0.11-0.08-0.16-0.22-0.16-0.43v-9.02c0-0.2,0.05-0.34,0.16-0.43
					c0.11-0.08,0.22-0.12,0.34-0.12h4.8c0.04,0,0.08,0.01,0.11,0.03c0.03,0.02,0.06,0.05,0.08,0.1c0.02,0.05,0.04,0.11,0.05,0.18
					c0.01,0.07,0.02,0.16,0.02,0.26c0,0.09-0.01,0.18-0.02,0.25c-0.01,0.07-0.03,0.13-0.05,0.17c-0.02,0.04-0.05,0.08-0.08,0.1
					c-0.03,0.02-0.07,0.03-0.11,0.03h-3.95v3.17h3.39c0.04,0,0.08,0.01,0.11,0.04c0.03,0.02,0.06,0.06,0.09,0.1
					c0.02,0.04,0.04,0.1,0.05,0.17c0.01,0.07,0.02,0.16,0.02,0.26c0,0.09-0.01,0.17-0.02,0.24c-0.01,0.07-0.03,0.12-0.05,0.16
					c-0.02,0.04-0.05,0.07-0.09,0.09c-0.03,0.02-0.07,0.03-0.11,0.03h-3.39v3.62h4.01c0.04,0,0.08,0.01,0.11,0.03
					c0.03,0.02,0.06,0.05,0.09,0.1c0.03,0.04,0.04,0.1,0.05,0.17C299.74,37.4,299.75,37.49,299.75,37.6z"/>
				
					<linearGradient id="SVGID_00000113328949575554696290000004198343132041342363_" gradientUnits="userSpaceOnUse" x1="294.1229" y1="33.0954" x2="315.6307" y2="33.0954">
					<stop  offset="0" style="stop-color:#2A127D"/>
					<stop  offset="0.1392" style="stop-color:#2F1386"/>
					<stop  offset="0.3657" style="stop-color:#3B159E"/>
					<stop  offset="0.6513" style="stop-color:#4F18C6"/>
					<stop  offset="0.9819" style="stop-color:#6B1DFC"/>
					<stop  offset="1" style="stop-color:#6D1DFF"/>
				</linearGradient>
				<path style="fill:url(#SVGID_00000113328949575554696290000004198343132041342363_);" d="M308.15,31c0,0.51-0.08,0.96-0.25,1.37
					c-0.17,0.41-0.41,0.75-0.71,1.04c-0.31,0.29-0.69,0.51-1.14,0.66c-0.45,0.16-0.99,0.23-1.61,0.23h-1.15v3.64
					c0,0.04-0.01,0.08-0.04,0.11s-0.06,0.06-0.11,0.07c-0.05,0.02-0.12,0.03-0.2,0.05s-0.19,0.02-0.32,0.02
					c-0.13,0-0.24-0.01-0.32-0.02s-0.16-0.03-0.21-0.05c-0.05-0.02-0.09-0.04-0.11-0.07c-0.02-0.03-0.03-0.07-0.03-0.11v-9.33
					c0-0.21,0.05-0.36,0.16-0.45c0.11-0.09,0.23-0.13,0.37-0.13h2.16c0.22,0,0.43,0.01,0.63,0.03c0.2,0.02,0.44,0.06,0.71,0.12
					c0.27,0.06,0.55,0.17,0.84,0.34c0.28,0.16,0.52,0.37,0.72,0.61c0.2,0.24,0.35,0.52,0.46,0.83
					C308.09,30.27,308.15,30.62,308.15,31z M306.73,31.11c0-0.41-0.08-0.75-0.23-1.03c-0.15-0.28-0.34-0.48-0.57-0.62
					c-0.23-0.13-0.46-0.22-0.7-0.26c-0.24-0.04-0.48-0.05-0.71-0.05h-1.24v4.05h1.21c0.41,0,0.74-0.05,1.01-0.16
					c0.27-0.1,0.49-0.25,0.68-0.43c0.18-0.18,0.32-0.41,0.41-0.66C306.69,31.69,306.73,31.41,306.73,31.11z"/>
				
					<linearGradient id="SVGID_00000139274946051590698630000015583882950599380620_" gradientUnits="userSpaceOnUse" x1="294.1229" y1="33.0954" x2="315.6307" y2="33.0954">
					<stop  offset="0" style="stop-color:#2A127D"/>
					<stop  offset="0.1392" style="stop-color:#2F1386"/>
					<stop  offset="0.3657" style="stop-color:#3B159E"/>
					<stop  offset="0.6513" style="stop-color:#4F18C6"/>
					<stop  offset="0.9819" style="stop-color:#6B1DFC"/>
					<stop  offset="1" style="stop-color:#6D1DFF"/>
				</linearGradient>
				<path style="fill:url(#SVGID_00000139274946051590698630000015583882950599380620_);" d="M315.63,35.31
					c0,0.47-0.09,0.9-0.26,1.27c-0.17,0.37-0.42,0.68-0.73,0.94c-0.31,0.26-0.67,0.45-1.09,0.58c-0.42,0.13-0.87,0.2-1.36,0.2
					c-0.34,0-0.65-0.03-0.94-0.09s-0.55-0.13-0.77-0.21c-0.23-0.08-0.42-0.17-0.57-0.26c-0.15-0.09-0.26-0.16-0.32-0.23
					c-0.06-0.06-0.1-0.14-0.13-0.24c-0.03-0.1-0.04-0.22-0.04-0.39c0-0.11,0-0.21,0.02-0.29c0.01-0.08,0.03-0.14,0.05-0.18
					c0.02-0.05,0.05-0.08,0.08-0.1c0.03-0.02,0.07-0.03,0.11-0.03c0.07,0,0.18,0.04,0.31,0.13c0.13,0.09,0.3,0.19,0.51,0.29
					c0.21,0.1,0.46,0.2,0.75,0.29c0.29,0.09,0.63,0.14,1.02,0.14c0.29,0,0.56-0.04,0.8-0.12s0.45-0.19,0.62-0.33
					c0.17-0.14,0.31-0.32,0.4-0.53c0.09-0.21,0.14-0.45,0.14-0.71c0-0.29-0.07-0.53-0.2-0.73c-0.13-0.2-0.3-0.38-0.52-0.54
					c-0.21-0.15-0.46-0.29-0.73-0.42c-0.27-0.13-0.55-0.26-0.84-0.39c-0.29-0.13-0.57-0.28-0.84-0.44
					c-0.27-0.16-0.51-0.35-0.73-0.57c-0.21-0.22-0.39-0.47-0.52-0.77c-0.13-0.29-0.2-0.65-0.2-1.06c0-0.42,0.08-0.8,0.23-1.13
					c0.15-0.33,0.37-0.61,0.64-0.83c0.27-0.22,0.6-0.39,0.98-0.51c0.38-0.12,0.79-0.18,1.22-0.18c0.22,0,0.45,0.02,0.68,0.06
					s0.44,0.09,0.64,0.16c0.2,0.07,0.38,0.14,0.54,0.22c0.16,0.08,0.26,0.15,0.31,0.2c0.05,0.05,0.08,0.09,0.1,0.12
					c0.02,0.03,0.03,0.07,0.04,0.11c0.01,0.04,0.02,0.1,0.02,0.16c0,0.06,0.01,0.14,0.01,0.24c0,0.09,0,0.18-0.01,0.25
					c-0.01,0.07-0.02,0.13-0.04,0.18c-0.02,0.05-0.04,0.09-0.07,0.11c-0.03,0.02-0.06,0.04-0.1,0.04c-0.06,0-0.15-0.04-0.27-0.11
					c-0.12-0.07-0.27-0.15-0.45-0.25c-0.18-0.09-0.39-0.17-0.63-0.25c-0.24-0.08-0.51-0.11-0.82-0.11c-0.28,0-0.53,0.04-0.73,0.11
					c-0.21,0.08-0.38,0.18-0.52,0.3c-0.14,0.12-0.24,0.27-0.3,0.45c-0.07,0.17-0.1,0.35-0.1,0.55c0,0.28,0.06,0.52,0.2,0.73
					c0.13,0.2,0.3,0.38,0.52,0.54c0.22,0.16,0.46,0.3,0.74,0.43c0.28,0.13,0.56,0.26,0.84,0.39c0.29,0.13,0.57,0.28,0.84,0.44
					c0.28,0.16,0.52,0.35,0.74,0.56c0.22,0.22,0.39,0.47,0.52,0.77C315.56,34.57,315.63,34.91,315.63,35.31z"/>
			</g>
		</g>
	</g>
	<g>
		<path class="st0" d="M383.86,18.32h-2.32v-2.54c0-1.53-1.24-2.77-2.77-2.77h-23.61c-0.53,0-1.04-0.16-1.46-0.48l-3.12-2.27
			c-0.62-0.45-1.36-0.69-2.12-0.69h-4.55c-1.53,0-2.77,1.24-2.77,2.77v29.82c0,2.45,1.99,4.44,4.44,4.44h36.63
			c1.18,0,2.3-0.46,3.14-1.3c0.84-0.84,1.3-1.95,1.3-3.14V21.1C386.64,19.57,385.39,18.32,383.86,18.32z M345.57,45.48
			c-1.83,0-3.32-1.49-3.32-3.32V12.35c0-0.91,0.74-1.66,1.66-1.66h4.55c0.53,0,1.04,0.16,1.47,0.48l3.12,2.27
			c0.62,0.45,1.36,0.69,2.12,0.69h23.61c0.91,0,1.66,0.74,1.66,1.66v2.54h-28.76c-1.53,0-2.77,1.24-2.77,2.77v21.07
			C348.89,44,347.4,45.48,345.57,45.48z M385.52,42.17c0,0.89-0.35,1.72-0.97,2.35c-0.63,0.63-1.46,0.97-2.35,0.97h-33.69
			c0.92-0.81,1.49-2,1.49-3.32V21.1c0-0.91,0.74-1.66,1.66-1.66h32.2c0.91,0,1.66,0.74,1.66,1.66V42.17z"/>
		<g>
			<g>
				
					<linearGradient id="SVGID_00000040560388269907422960000016903574588939729306_" gradientUnits="userSpaceOnUse" x1="356.0663" y1="33.0954" x2="379.4569" y2="33.0954">
					<stop  offset="0" style="stop-color:#2A127D"/>
					<stop  offset="0.1392" style="stop-color:#2F1386"/>
					<stop  offset="0.3657" style="stop-color:#3B159E"/>
					<stop  offset="0.6513" style="stop-color:#4F18C6"/>
					<stop  offset="0.9819" style="stop-color:#6B1DFC"/>
					<stop  offset="1" style="stop-color:#6D1DFF"/>
				</linearGradient>
				<path style="fill:url(#SVGID_00000040560388269907422960000016903574588939729306_);" d="M362.28,31c0,0.51-0.08,0.96-0.25,1.37
					c-0.17,0.41-0.41,0.75-0.71,1.04c-0.31,0.29-0.69,0.51-1.14,0.66c-0.45,0.16-0.99,0.23-1.61,0.23h-1.15v3.64
					c0,0.04-0.01,0.08-0.04,0.11s-0.06,0.06-0.11,0.07c-0.05,0.02-0.12,0.03-0.2,0.05s-0.19,0.02-0.32,0.02
					c-0.13,0-0.24-0.01-0.32-0.02s-0.16-0.03-0.21-0.05c-0.05-0.02-0.09-0.04-0.11-0.07c-0.02-0.03-0.03-0.07-0.03-0.11v-9.33
					c0-0.21,0.05-0.36,0.16-0.45c0.11-0.09,0.23-0.13,0.37-0.13h2.16c0.22,0,0.43,0.01,0.63,0.03c0.2,0.02,0.44,0.06,0.71,0.12
					c0.27,0.06,0.55,0.17,0.84,0.34c0.28,0.16,0.52,0.37,0.72,0.61c0.2,0.24,0.35,0.52,0.46,0.83
					C362.22,30.27,362.28,30.62,362.28,31z M360.86,31.11c0-0.41-0.08-0.75-0.23-1.03c-0.15-0.28-0.34-0.48-0.57-0.62
					c-0.23-0.13-0.46-0.22-0.7-0.26c-0.24-0.04-0.48-0.05-0.71-0.05h-1.24v4.05h1.21c0.41,0,0.74-0.05,1.01-0.16
					c0.27-0.1,0.49-0.25,0.68-0.43c0.18-0.18,0.32-0.41,0.41-0.66C360.82,31.69,360.86,31.41,360.86,31.11z"/>
				
					<linearGradient id="SVGID_00000162331639832927319050000017233639697618778504_" gradientUnits="userSpaceOnUse" x1="356.0663" y1="33.0954" x2="379.4569" y2="33.0954">
					<stop  offset="0" style="stop-color:#2A127D"/>
					<stop  offset="0.1392" style="stop-color:#2F1386"/>
					<stop  offset="0.3657" style="stop-color:#3B159E"/>
					<stop  offset="0.6513" style="stop-color:#4F18C6"/>
					<stop  offset="0.9819" style="stop-color:#6B1DFC"/>
					<stop  offset="1" style="stop-color:#6D1DFF"/>
				</linearGradient>
				<path style="fill:url(#SVGID_00000162331639832927319050000017233639697618778504_);" d="M369.76,35.31
					c0,0.47-0.09,0.9-0.26,1.27c-0.17,0.37-0.42,0.68-0.73,0.94c-0.31,0.26-0.67,0.45-1.09,0.58c-0.42,0.13-0.87,0.2-1.36,0.2
					c-0.34,0-0.65-0.03-0.94-0.09s-0.55-0.13-0.77-0.21c-0.23-0.08-0.42-0.17-0.57-0.26c-0.15-0.09-0.26-0.16-0.32-0.23
					c-0.06-0.06-0.1-0.14-0.13-0.24c-0.03-0.1-0.04-0.22-0.04-0.39c0-0.11,0-0.21,0.02-0.29c0.01-0.08,0.03-0.14,0.05-0.18
					c0.02-0.05,0.05-0.08,0.08-0.1c0.03-0.02,0.07-0.03,0.11-0.03c0.07,0,0.18,0.04,0.31,0.13c0.13,0.09,0.3,0.19,0.51,0.29
					c0.21,0.1,0.46,0.2,0.75,0.29c0.29,0.09,0.63,0.14,1.02,0.14c0.29,0,0.56-0.04,0.8-0.12s0.45-0.19,0.62-0.33
					c0.17-0.14,0.31-0.32,0.4-0.53c0.09-0.21,0.14-0.45,0.14-0.71c0-0.29-0.07-0.53-0.2-0.73c-0.13-0.2-0.3-0.38-0.52-0.54
					c-0.21-0.15-0.46-0.29-0.73-0.42c-0.27-0.13-0.55-0.26-0.84-0.39c-0.29-0.13-0.57-0.28-0.84-0.44
					c-0.27-0.16-0.51-0.35-0.73-0.57c-0.21-0.22-0.39-0.47-0.52-0.77c-0.13-0.29-0.2-0.65-0.2-1.06c0-0.42,0.08-0.8,0.23-1.13
					c0.15-0.33,0.37-0.61,0.64-0.83c0.27-0.22,0.6-0.39,0.98-0.51c0.38-0.12,0.79-0.18,1.22-0.18c0.22,0,0.45,0.02,0.68,0.06
					s0.44,0.09,0.64,0.16c0.2,0.07,0.38,0.14,0.54,0.22c0.16,0.08,0.26,0.15,0.31,0.2c0.05,0.05,0.08,0.09,0.1,0.12
					c0.02,0.03,0.03,0.07,0.04,0.11c0.01,0.04,0.02,0.1,0.02,0.16c0,0.06,0.01,0.14,0.01,0.24c0,0.09,0,0.18-0.01,0.25
					c-0.01,0.07-0.02,0.13-0.04,0.18c-0.02,0.05-0.04,0.09-0.07,0.11c-0.03,0.02-0.06,0.04-0.1,0.04c-0.06,0-0.15-0.04-0.27-0.11
					c-0.12-0.07-0.27-0.15-0.45-0.25c-0.18-0.09-0.39-0.17-0.63-0.25c-0.24-0.08-0.51-0.11-0.82-0.11c-0.28,0-0.53,0.04-0.73,0.11
					c-0.21,0.08-0.38,0.18-0.52,0.3c-0.14,0.12-0.24,0.27-0.3,0.45c-0.07,0.17-0.1,0.35-0.1,0.55c0,0.28,0.06,0.52,0.2,0.73
					c0.13,0.2,0.3,0.38,0.52,0.54c0.22,0.16,0.46,0.3,0.74,0.43c0.28,0.13,0.56,0.26,0.84,0.39c0.29,0.13,0.57,0.28,0.84,0.44
					c0.28,0.16,0.52,0.35,0.74,0.56c0.22,0.22,0.39,0.47,0.52,0.77C369.7,34.57,369.76,34.91,369.76,35.31z"/>
				
					<linearGradient id="SVGID_00000129174802922490312520000008170360546414011572_" gradientUnits="userSpaceOnUse" x1="356.0663" y1="33.0954" x2="379.4569" y2="33.0954">
					<stop  offset="0" style="stop-color:#2A127D"/>
					<stop  offset="0.1392" style="stop-color:#2F1386"/>
					<stop  offset="0.3657" style="stop-color:#3B159E"/>
					<stop  offset="0.6513" style="stop-color:#4F18C6"/>
					<stop  offset="0.9819" style="stop-color:#6B1DFC"/>
					<stop  offset="1" style="stop-color:#6D1DFF"/>
				</linearGradient>
				<path style="fill:url(#SVGID_00000129174802922490312520000008170360546414011572_);" d="M379.46,32.95
					c0,0.88-0.11,1.64-0.34,2.29c-0.22,0.65-0.55,1.2-0.98,1.62s-0.96,0.75-1.58,0.96c-0.62,0.21-1.37,0.32-2.23,0.32h-2.14
					c-0.12,0-0.23-0.04-0.34-0.12c-0.11-0.08-0.16-0.22-0.16-0.43v-9.02c0-0.2,0.05-0.34,0.16-0.43c0.11-0.08,0.22-0.12,0.34-0.12
					h2.29c0.88,0,1.61,0.11,2.22,0.34c0.6,0.23,1.11,0.55,1.52,0.98c0.41,0.42,0.72,0.94,0.93,1.54
					C379.35,31.5,379.46,32.19,379.46,32.95z M378.04,33c0-0.55-0.07-1.06-0.2-1.53c-0.14-0.47-0.35-0.88-0.64-1.22
					s-0.66-0.61-1.1-0.8c-0.44-0.19-1.01-0.29-1.71-0.29h-1.37v7.87h1.38c0.65,0,1.19-0.08,1.63-0.24c0.44-0.16,0.81-0.41,1.11-0.74
					c0.3-0.33,0.52-0.75,0.67-1.25C377.97,34.28,378.04,33.69,378.04,33z"/>
			</g>
		</g>
	</g>
	<g>
		<path class="st0" d="M446.69,18.32h-2.32v-2.54c0-1.53-1.24-2.77-2.77-2.77H418c-0.53,0-1.04-0.16-1.46-0.48l-3.12-2.27
			c-0.62-0.45-1.36-0.69-2.12-0.69h-4.55c-1.53,0-2.77,1.24-2.77,2.77v29.82c0,2.45,1.99,4.44,4.44,4.44h36.63
			c1.18,0,2.3-0.46,3.14-1.3c0.84-0.84,1.3-1.95,1.3-3.14V21.1C449.47,19.57,448.22,18.32,446.69,18.32z M408.4,45.48
			c-1.83,0-3.32-1.49-3.32-3.32V12.35c0-0.91,0.74-1.66,1.66-1.66h4.55c0.53,0,1.04,0.16,1.47,0.48l3.12,2.27
			c0.62,0.45,1.36,0.69,2.12,0.69h23.61c0.91,0,1.66,0.74,1.66,1.66v2.54h-28.76c-1.53,0-2.77,1.24-2.77,2.77v21.07
			C411.72,44,410.23,45.48,408.4,45.48z M448.35,42.17c0,0.89-0.34,1.72-0.97,2.35c-0.63,0.63-1.46,0.97-2.35,0.97h-33.69
			c0.92-0.81,1.49-2,1.49-3.32V21.1c0-0.91,0.74-1.66,1.66-1.66h32.2c0.91,0,1.66,0.74,1.66,1.66V42.17z"/>
		<g>
			<g>
				
					<linearGradient id="SVGID_00000179615052329360123680000011874453637610105479_" gradientUnits="userSpaceOnUse" x1="420.2212" y1="33.0954" x2="440.9676" y2="33.0954">
					<stop  offset="0" style="stop-color:#2A127D"/>
					<stop  offset="0.1392" style="stop-color:#2F1386"/>
					<stop  offset="0.3657" style="stop-color:#3B159E"/>
					<stop  offset="0.6513" style="stop-color:#4F18C6"/>
					<stop  offset="0.9819" style="stop-color:#6B1DFC"/>
					<stop  offset="1" style="stop-color:#6D1DFF"/>
				</linearGradient>
				<path style="fill:url(#SVGID_00000179615052329360123680000011874453637610105479_);" d="M428.86,37.67
					c0.04,0.12,0.06,0.21,0.07,0.28c0,0.07-0.02,0.12-0.06,0.16c-0.04,0.04-0.11,0.06-0.21,0.07c-0.1,0.01-0.23,0.02-0.39,0.02
					c-0.16,0-0.29,0-0.39-0.01c-0.1-0.01-0.17-0.02-0.22-0.04c-0.05-0.02-0.09-0.04-0.11-0.07s-0.05-0.07-0.07-0.12l-0.87-2.46h-4.2
					l-0.83,2.43c-0.02,0.05-0.04,0.09-0.06,0.12c-0.03,0.03-0.06,0.06-0.11,0.09c-0.05,0.02-0.12,0.04-0.21,0.05
					c-0.09,0.01-0.21,0.02-0.36,0.02c-0.15,0-0.28-0.01-0.37-0.02c-0.1-0.01-0.16-0.04-0.2-0.07c-0.04-0.04-0.06-0.09-0.05-0.16
					c0-0.07,0.02-0.16,0.07-0.28l3.39-9.39c0.02-0.06,0.05-0.1,0.08-0.14c0.03-0.04,0.08-0.06,0.15-0.09
					c0.06-0.02,0.15-0.04,0.25-0.04s0.23-0.01,0.39-0.01c0.17,0,0.3,0,0.41,0.01s0.2,0.02,0.27,0.04c0.07,0.02,0.12,0.05,0.16,0.09
					c0.04,0.04,0.06,0.09,0.09,0.14L428.86,37.67z M424.51,29.38L424.51,29.38l-1.75,5.04h3.52L424.51,29.38z"/>
				
					<linearGradient id="SVGID_00000060733649900815252970000011837034416703435909_" gradientUnits="userSpaceOnUse" x1="420.2212" y1="33.0954" x2="440.9676" y2="33.0954">
					<stop  offset="0" style="stop-color:#2A127D"/>
					<stop  offset="0.1392" style="stop-color:#2F1386"/>
					<stop  offset="0.3657" style="stop-color:#3B159E"/>
					<stop  offset="0.6513" style="stop-color:#4F18C6"/>
					<stop  offset="0.9819" style="stop-color:#6B1DFC"/>
					<stop  offset="1" style="stop-color:#6D1DFF"/>
				</linearGradient>
				<path style="fill:url(#SVGID_00000060733649900815252970000011837034416703435909_);" d="M434.63,37.92
					c-0.02,0.06-0.05,0.1-0.09,0.14c-0.04,0.04-0.09,0.07-0.15,0.09c-0.07,0.02-0.15,0.04-0.25,0.04s-0.23,0.01-0.38,0.01
					c-0.12,0-0.21,0-0.3,0s-0.16-0.01-0.22-0.02s-0.12-0.02-0.16-0.04c-0.04-0.01-0.08-0.03-0.11-0.05
					c-0.03-0.02-0.06-0.04-0.07-0.07c-0.02-0.03-0.04-0.06-0.05-0.11l-3.3-9.39c-0.04-0.11-0.06-0.21-0.07-0.28
					c0-0.07,0.02-0.12,0.07-0.16c0.05-0.04,0.12-0.06,0.23-0.07c0.1-0.01,0.24-0.02,0.42-0.02c0.15,0,0.26,0,0.35,0.01
					s0.15,0.02,0.2,0.04c0.05,0.02,0.08,0.05,0.11,0.08c0.02,0.03,0.04,0.08,0.07,0.13l2.9,8.51h0.01l2.82-8.49
					c0.02-0.06,0.03-0.1,0.05-0.14c0.02-0.04,0.06-0.06,0.11-0.09c0.05-0.02,0.12-0.04,0.22-0.04s0.22-0.01,0.38-0.01
					c0.16,0,0.29,0.01,0.38,0.02c0.09,0.01,0.16,0.04,0.19,0.07c0.03,0.04,0.05,0.09,0.04,0.16s-0.03,0.16-0.07,0.28L434.63,37.92z"
					/>
				
					<linearGradient id="SVGID_00000137829208392223965580000003180421054198047623_" gradientUnits="userSpaceOnUse" x1="420.2212" y1="33.0954" x2="440.9676" y2="33.0954">
					<stop  offset="0" style="stop-color:#2A127D"/>
					<stop  offset="0.1392" style="stop-color:#2F1386"/>
					<stop  offset="0.3657" style="stop-color:#3B159E"/>
					<stop  offset="0.6513" style="stop-color:#4F18C6"/>
					<stop  offset="0.9819" style="stop-color:#6B1DFC"/>
					<stop  offset="1" style="stop-color:#6D1DFF"/>
				</linearGradient>
				<path style="fill:url(#SVGID_00000137829208392223965580000003180421054198047623_);" d="M440.97,37.95
					c0,0.04-0.01,0.08-0.03,0.11c-0.02,0.03-0.06,0.06-0.11,0.07c-0.05,0.02-0.12,0.03-0.21,0.05s-0.19,0.02-0.32,0.02
					c-0.12,0-0.23-0.01-0.32-0.02c-0.09-0.01-0.16-0.03-0.21-0.05c-0.05-0.02-0.09-0.04-0.11-0.07c-0.02-0.03-0.03-0.07-0.03-0.11
					v-9.7c0-0.04,0.01-0.08,0.04-0.11s0.06-0.06,0.12-0.07c0.05-0.02,0.12-0.03,0.21-0.05c0.09-0.01,0.19-0.02,0.31-0.02
					c0.13,0,0.24,0.01,0.32,0.02c0.09,0.01,0.15,0.03,0.21,0.05c0.05,0.02,0.09,0.04,0.11,0.07c0.02,0.03,0.03,0.07,0.03,0.11V37.95
					z"/>
			</g>
		</g>
	</g>
	<g>
		<path class="st0" d="M509.53,18.32h-2.32v-2.54c0-1.53-1.24-2.77-2.77-2.77h-23.61c-0.53,0-1.04-0.16-1.46-0.48l-3.12-2.27
			c-0.62-0.45-1.36-0.69-2.12-0.69h-4.55c-1.53,0-2.77,1.24-2.77,2.77v29.82c0,2.45,1.99,4.44,4.44,4.44h36.63
			c1.18,0,2.3-0.46,3.14-1.3c0.84-0.84,1.3-1.95,1.3-3.14V21.1C512.3,19.57,511.06,18.32,509.53,18.32z M471.23,45.48
			c-1.83,0-3.32-1.49-3.32-3.32V12.35c0-0.91,0.74-1.66,1.66-1.66h4.55c0.53,0,1.04,0.16,1.47,0.48l3.12,2.27
			c0.62,0.45,1.36,0.69,2.12,0.69h23.61c0.91,0,1.66,0.74,1.66,1.66v2.54h-28.76c-1.53,0-2.77,1.24-2.77,2.77v21.07
			C474.55,44,473.06,45.48,471.23,45.48z M511.18,42.17c0,0.89-0.34,1.72-0.97,2.35c-0.63,0.63-1.46,0.97-2.35,0.97h-33.69
			c0.92-0.81,1.49-2,1.49-3.32V21.1c0-0.91,0.74-1.66,1.66-1.66h32.2c0.91,0,1.66,0.74,1.66,1.66V42.17z"/>
		<g>
			<g>
				
					<linearGradient id="SVGID_00000153694114490864331490000010454986077442405273_" gradientUnits="userSpaceOnUse" x1="477.5614" y1="33.0954" x2="509.294" y2="33.0954">
					<stop  offset="0" style="stop-color:#2A127D"/>
					<stop  offset="0.1392" style="stop-color:#2F1386"/>
					<stop  offset="0.3657" style="stop-color:#3B159E"/>
					<stop  offset="0.6513" style="stop-color:#4F18C6"/>
					<stop  offset="0.9819" style="stop-color:#6B1DFC"/>
					<stop  offset="1" style="stop-color:#6D1DFF"/>
				</linearGradient>
				<path style="fill:url(#SVGID_00000153694114490864331490000010454986077442405273_);" d="M488.55,37.95
					c0,0.04-0.01,0.08-0.03,0.11s-0.06,0.06-0.11,0.07c-0.05,0.02-0.12,0.03-0.21,0.05s-0.19,0.02-0.33,0.02
					c-0.12,0-0.23-0.01-0.32-0.02c-0.09-0.01-0.16-0.03-0.21-0.05c-0.05-0.02-0.09-0.04-0.11-0.07s-0.03-0.07-0.03-0.11v-8.8h-0.02
					l-3.56,8.84c-0.02,0.04-0.04,0.07-0.07,0.09c-0.03,0.03-0.07,0.05-0.12,0.07c-0.05,0.02-0.12,0.03-0.2,0.04
					c-0.08,0.01-0.17,0.01-0.27,0.01c-0.11,0-0.2,0-0.28-0.02s-0.14-0.02-0.2-0.04c-0.05-0.02-0.09-0.04-0.12-0.07
					c-0.03-0.03-0.05-0.05-0.06-0.09l-3.41-8.84h-0.01v8.8c0,0.04-0.01,0.08-0.03,0.11s-0.06,0.06-0.11,0.07
					c-0.05,0.02-0.12,0.03-0.21,0.05s-0.2,0.02-0.33,0.02c-0.13,0-0.24-0.01-0.32-0.02s-0.15-0.03-0.21-0.05
					c-0.05-0.02-0.09-0.04-0.1-0.07c-0.02-0.03-0.03-0.07-0.03-0.11v-9.3c0-0.22,0.06-0.38,0.17-0.47c0.12-0.09,0.25-0.14,0.39-0.14
					h0.82c0.17,0,0.32,0.02,0.44,0.05s0.24,0.08,0.33,0.15c0.1,0.07,0.17,0.15,0.24,0.26c0.06,0.1,0.12,0.23,0.17,0.37l2.89,7.32
					h0.04l3.01-7.3c0.06-0.16,0.12-0.29,0.19-0.4c0.07-0.11,0.14-0.2,0.23-0.26c0.08-0.06,0.17-0.11,0.27-0.14
					c0.1-0.03,0.22-0.04,0.35-0.04h0.86c0.08,0,0.16,0.01,0.23,0.04s0.13,0.06,0.18,0.11c0.05,0.05,0.09,0.11,0.12,0.19
					c0.03,0.08,0.05,0.17,0.05,0.28V37.95z"/>
				
					<linearGradient id="SVGID_00000026851439933347135400000003419479783743671481_" gradientUnits="userSpaceOnUse" x1="477.5614" y1="33.0954" x2="509.294" y2="33.0954">
					<stop  offset="0" style="stop-color:#2A127D"/>
					<stop  offset="0.1392" style="stop-color:#2F1386"/>
					<stop  offset="0.3657" style="stop-color:#3B159E"/>
					<stop  offset="0.6513" style="stop-color:#4F18C6"/>
					<stop  offset="0.9819" style="stop-color:#6B1DFC"/>
					<stop  offset="1" style="stop-color:#6D1DFF"/>
				</linearGradient>
				<path style="fill:url(#SVGID_00000026851439933347135400000003419479783743671481_);" d="M499.71,32.98
					c0,0.82-0.1,1.55-0.29,2.21c-0.19,0.66-0.48,1.21-0.86,1.68s-0.86,0.82-1.44,1.06s-1.25,0.37-2.02,0.37
					c-0.76,0-1.42-0.11-1.97-0.34s-1.01-0.56-1.38-0.99c-0.36-0.43-0.63-0.97-0.81-1.61c-0.18-0.64-0.27-1.38-0.27-2.21
					c0-0.8,0.1-1.52,0.29-2.17c0.19-0.65,0.48-1.2,0.87-1.66c0.38-0.46,0.87-0.81,1.45-1.05c0.58-0.25,1.25-0.37,2.02-0.37
					c0.74,0,1.39,0.11,1.95,0.34c0.55,0.22,1.01,0.55,1.38,0.98s0.64,0.96,0.82,1.59S499.71,32.16,499.71,32.98z M498.29,33.07
					c0-0.57-0.05-1.11-0.15-1.6s-0.27-0.92-0.51-1.28c-0.24-0.36-0.55-0.64-0.95-0.85s-0.88-0.3-1.47-0.3
					c-0.58,0-1.07,0.11-1.47,0.33c-0.4,0.22-0.72,0.51-0.96,0.88c-0.25,0.37-0.42,0.79-0.53,1.28c-0.11,0.49-0.16,1-0.16,1.54
					c0,0.59,0.05,1.14,0.15,1.64c0.1,0.5,0.26,0.93,0.5,1.29c0.23,0.36,0.55,0.64,0.94,0.84c0.39,0.2,0.89,0.3,1.48,0.3
					c0.59,0,1.08-0.11,1.48-0.33s0.72-0.51,0.97-0.89c0.24-0.37,0.42-0.8,0.52-1.29C498.24,34.14,498.29,33.62,498.29,33.07z"/>
				
					<linearGradient id="SVGID_00000070091555877378449140000002078255409489029806_" gradientUnits="userSpaceOnUse" x1="477.5614" y1="33.0954" x2="509.294" y2="33.0954">
					<stop  offset="0" style="stop-color:#2A127D"/>
					<stop  offset="0.1392" style="stop-color:#2F1386"/>
					<stop  offset="0.3657" style="stop-color:#3B159E"/>
					<stop  offset="0.6513" style="stop-color:#4F18C6"/>
					<stop  offset="0.9819" style="stop-color:#6B1DFC"/>
					<stop  offset="1" style="stop-color:#6D1DFF"/>
				</linearGradient>
				<path style="fill:url(#SVGID_00000070091555877378449140000002078255409489029806_);" d="M505.92,37.92
					c-0.02,0.06-0.05,0.1-0.09,0.14c-0.04,0.04-0.09,0.07-0.15,0.09c-0.07,0.02-0.15,0.04-0.25,0.04s-0.23,0.01-0.38,0.01
					c-0.12,0-0.21,0-0.3,0s-0.16-0.01-0.22-0.02s-0.12-0.02-0.16-0.04c-0.04-0.01-0.08-0.03-0.11-0.05
					c-0.03-0.02-0.06-0.04-0.07-0.07c-0.02-0.03-0.04-0.06-0.05-0.11l-3.3-9.39c-0.04-0.11-0.06-0.21-0.07-0.28
					c0-0.07,0.02-0.12,0.07-0.16c0.05-0.04,0.12-0.06,0.23-0.07c0.1-0.01,0.24-0.02,0.42-0.02c0.15,0,0.26,0,0.35,0.01
					s0.15,0.02,0.2,0.04c0.05,0.02,0.08,0.05,0.11,0.08c0.02,0.03,0.04,0.08,0.07,0.13l2.9,8.51h0.01l2.82-8.49
					c0.02-0.06,0.03-0.1,0.05-0.14c0.02-0.04,0.06-0.06,0.11-0.09c0.05-0.02,0.12-0.04,0.22-0.04s0.22-0.01,0.38-0.01
					c0.16,0,0.29,0.01,0.38,0.02c0.09,0.01,0.16,0.04,0.19,0.07c0.03,0.04,0.05,0.09,0.04,0.16s-0.03,0.16-0.07,0.28L505.92,37.92z"
					/>
			</g>
		</g>
	</g>
</g>
</svg>
