<?xml version="1.0" encoding="utf-8"?>
<!-- Generator: Adobe Illustrator 27.0.1, SVG Export Plug-In . SVG Version: 6.00 Build 0)  -->
<svg version="1.1" id="Layer_1" xmlns="http://www.w3.org/2000/svg" xmlns:xlink="http://www.w3.org/1999/xlink" x="0px" y="0px"
	 viewBox="0 0 44.88 56.18" style="enable-background:new 0 0 44.88 56.18;" xml:space="preserve">
<style type="text/css">
	.st0{fill-rule:evenodd;clip-rule:evenodd;fill:#FFFFFF;}
</style>
<g>
	<path class="st0" d="M27.08,37.45c3.31,4.8,1.23,10.36,1.23,10.36l1.07,0.61c5.3-8.23,5.21-14.71,4.35-18.49
		C31.88,32.73,29.64,35.29,27.08,37.45z"/>
	<path class="st0" d="M16.3,36.21c-0.19,0.35-0.08,0.81,0.25,1l4.93,2.87c0.33,0.2,0.78,0.08,0.99-0.28l0.62-1.1l-6.18-3.6
		L16.3,36.21z"/>
	<path class="st0" d="M6.54,35.11c0,0,3.72-4.61,9.47-4.12c0.58-3.31,1.68-6.56,3.14-9.57c-3.68,1.14-9.28,4.29-13.69,13.05
		L6.54,35.11z"/>
	<path class="st0" d="M24.39,38.77c3.88-2.68,7.49-6.58,10.25-11.44c4.52-7.92,5.79-16.46,3.98-22.98
		c-6.49,1.67-13.2,7.07-17.72,14.96c-2.77,4.86-4.31,9.96-4.68,14.71L24.39,38.77z M38.21,5.08c0.76,3.15,0.78,6.54,0.27,9.75
		l-8.77-5.12C32.23,7.66,35.12,5.99,38.21,5.08z M23.98,19.71c1.4-2.46,4.5-3.31,6.94-1.89c2.44,1.42,3.28,4.57,1.87,7.01
		c-1.4,2.46-4.52,3.31-6.96,1.89C23.42,25.3,22.58,22.15,23.98,19.71z"/>
	<path class="st0" d="M26.56,25.48c1.75,1,4,0.41,4.99-1.36c1.01-1.77,0.41-4.04-1.33-5.06c-1.75-1-4-0.41-5.01,1.36
		C24.2,22.19,24.8,24.46,26.56,25.48z M27.18,19.97c0.27-0.49,0.9-0.65,1.36-0.37c0.49,0.28,0.64,0.91,0.37,1.38
		c-0.27,0.49-0.9,0.65-1.36,0.37C27.06,21.07,26.91,20.46,27.18,19.97z"/>
	<path class="st0" d="M18.64,43.42c-1.05,1.87-2.69,3.09-4.31,3.45c-0.53-1.59-0.29-3.64,0.78-5.49c0.6-1.06,1.38-1.91,2.24-2.52
		l-0.55-0.32c-1.56,0.98-2.96,2.46-4.04,4.33c-1.74,3.03-2.12,6.36-1.29,8.96c2.63-0.57,5.3-2.58,7.04-5.61
		c1.07-1.85,1.62-3.84,1.7-5.69l-0.55-0.32C19.58,41.27,19.25,42.37,18.64,43.42z"/>
</g>
</svg>
