<?xml version="1.0" encoding="utf-8"?>
<!-- Generator: Adobe Illustrator 27.0.1, SVG Export Plug-In . SVG Version: 6.00 Build 0)  -->
<svg version="1.1" id="Layer_1" xmlns="http://www.w3.org/2000/svg" xmlns:xlink="http://www.w3.org/1999/xlink" x="0px" y="0px"
	 viewBox="0 0 35.62 24.06" style="enable-background:new 0 0 35.62 24.06;" xml:space="preserve">
<style type="text/css">
	.st0{fill:#FFFFFF;}
</style>
<g>
	<path class="st0" d="M11.53,9.86c-0.01,0.07-0.01,0.12-0.01,0.17c0,1.32,0,4.18,0,4.18s5.5,0,5.8,0c0,0.43-0.51,2.16-2.13,3.26
		c-0.95,0.64-2.02,0.94-3.15,1.01c-0.8,0.05-1.58-0.03-2.35-0.27c-2.42-0.78-4.22-2.96-4.46-5.63c-0.06-0.66-0.02-1.32,0.13-1.96
		c0.72-3.15,3.7-5.49,7.12-4.98c1.51,0.22,2.39,0.85,3.18,1.53c1.05-1.05,2.08-2.08,3.15-3.15c-0.26-0.19-0.86-0.79-1.92-1.41
		c-1.59-0.92-3.3-1.38-5.14-1.4c-0.35-0.01-0.69,0.02-1.04,0.03c-0.6,0.02-1.2,0.13-1.78,0.28c-2.34,0.6-4.28,1.83-5.81,3.7
		c-1.46,1.8-2.25,3.87-2.39,6.18c-0.06,0.98,0.01,1.95,0.23,2.91C1.58,17,2.98,19.16,5.2,20.79c1.72,1.26,3.66,1.93,5.78,2.05
		c1.2,0.07,2.38-0.04,3.55-0.35c2.17-0.57,3.97-1.7,5.33-3.5c1.96-2.61,2.43-5.95,1.86-9.13C18.3,9.86,14.92,9.86,11.53,9.86z"/>
	<polygon class="st0" points="34.8,10 31.13,10 31.13,6.33 31.13,6.22 31.02,6.22 28.28,6.22 28.18,6.22 28.18,6.33 28.18,10 
		24.51,10 24.4,10 24.4,10.11 24.4,12.85 24.4,12.95 24.51,12.95 28.18,12.95 28.18,16.62 28.18,16.73 28.28,16.73 31.02,16.73 
		31.13,16.73 31.13,16.62 31.13,12.95 34.8,12.95 34.91,12.95 34.91,12.85 34.91,10.11 34.91,10 	"/>
</g>
</svg>
