<?xml version="1.0" encoding="utf-8"?>
<!-- Generator: Adobe Illustrator 27.0.1, SVG Export Plug-In . SVG Version: 6.00 Build 0)  -->
<svg version="1.1" id="Layer_1" xmlns="http://www.w3.org/2000/svg" xmlns:xlink="http://www.w3.org/1999/xlink" x="0px" y="0px"
	 viewBox="0 0 26.06 26.06" style="enable-background:new 0 0 26.06 26.06;" xml:space="preserve">
<style type="text/css">
	.st0{fill:#05B362;}
	.st1{fill:#FFFFFF;}
	.st2{fill:#FEFFFE;}
	.st3{fill:#FDFEFE;}
	.st4{fill:#FDFEFD;}
</style>
<g>
	<path class="st0" d="M12.92,21.27c-4.52,0.03-8.48-3.67-8.49-8.48C4.42,8.1,8.25,4.27,12.94,4.28c4.89,0.02,8.51,4.06,8.49,8.53
		C21.41,17.41,17.61,21.31,12.92,21.27z"/>
	<path class="st1" d="M14.75,18.19c-0.75-0.03-1.5-0.25-2.17-0.68c-1.47-0.93-2.75-2.09-3.68-3.58c-0.53-0.84-0.87-1.75-1.02-2.74
		c-0.08-0.55-0.02-1.09,0.15-1.62c0.09-0.26,0.22-0.5,0.41-0.7c0.21-0.21,0.43-0.42,0.66-0.6C9.4,8.06,9.71,8.08,9.98,8.34
		c0.4,0.39,0.79,0.79,1.15,1.22c0.15,0.18,0.28,0.38,0.41,0.57c0.06,0.09,0.11,0.2,0.15,0.3c0.08,0.21,0.05,0.41-0.11,0.58
		c-0.19,0.2-0.4,0.38-0.62,0.54c-0.15,0.1-0.32,0.14-0.49,0.15c-0.13,0.01-0.19,0.08-0.19,0.22c0,0.18,0.04,0.34,0.12,0.5
		c0.12,0.25,0.25,0.48,0.41,0.71c0.45,0.66,0.96,1.26,1.55,1.8c0.2,0.18,0.41,0.36,0.65,0.5c0.13,0.08,0.26,0.15,0.41,0.16
		c0.17,0.02,0.28,0,0.33-0.21c0.11-0.46,0.44-0.73,0.82-0.97c0.04-0.03,0.09-0.04,0.14-0.06c0.24-0.09,0.46-0.08,0.65,0.11
		c0.05,0.05,0.11,0.1,0.16,0.16c0.44,0.49,0.87,0.98,1.31,1.48c0.07,0.07,0.12,0.16,0.18,0.23c0.2,0.25,0.18,0.5,0.02,0.76
		c-0.08,0.12-0.18,0.24-0.28,0.34C16.19,17.95,15.54,18.2,14.75,18.19z"/>
	<path class="st2" d="M18.01,12.63c-0.01,0.29-0.02,0.61-0.09,0.93c-0.02,0.09-0.07,0.16-0.17,0.18c-0.17,0.04-0.3-0.05-0.3-0.23
		c0-0.11,0.02-0.22,0.03-0.33c0.17-1.28-0.15-2.44-0.91-3.47c-0.67-0.91-1.56-1.51-2.65-1.8c-0.06-0.02-0.12-0.03-0.18-0.05
		c-0.11-0.05-0.17-0.16-0.14-0.27c0.03-0.12,0.13-0.2,0.24-0.19c0.09,0.01,0.17,0.03,0.25,0.05c2.04,0.64,3.33,1.98,3.8,4.08
		C17.98,11.88,18.01,12.23,18.01,12.63z"/>
	<path class="st3" d="M16.51,12.68c0,0.08-0.01,0.26-0.02,0.43c-0.01,0.1-0.03,0.2-0.09,0.28c-0.05,0.09-0.16,0.12-0.26,0.1
		c-0.11-0.03-0.17-0.1-0.17-0.21c0-0.09,0.01-0.17,0.02-0.26c0.17-1.19-0.36-2.61-1.64-3.33c-0.24-0.13-0.49-0.24-0.75-0.32
		c-0.07-0.02-0.15-0.03-0.21-0.06c-0.12-0.05-0.18-0.16-0.16-0.26c0.03-0.11,0.12-0.2,0.24-0.2c0.07,0,0.15,0.01,0.22,0.04
		c1.42,0.45,2.35,1.37,2.73,2.83C16.49,12,16.5,12.29,16.51,12.68z"/>
	<path class="st4" d="M15.02,12.62c-0.01,0.14-0.01,0.3-0.06,0.45c-0.06,0.18-0.3,0.22-0.42,0.08c-0.06-0.07-0.07-0.16-0.04-0.24
		c0.06-0.25,0.05-0.49-0.01-0.73c-0.17-0.68-0.57-1.14-1.24-1.36c-0.07-0.02-0.14-0.04-0.21-0.06c-0.11-0.04-0.17-0.15-0.16-0.26
		c0.02-0.12,0.11-0.2,0.23-0.2c0.07,0,0.15,0.01,0.22,0.03C14.35,10.62,15.02,11.53,15.02,12.62z"/>
</g>
</svg>
