<?xml version="1.0" encoding="utf-8"?>
<!-- Generator: Adobe Illustrator 27.0.1, SVG Export Plug-In . SVG Version: 6.00 Build 0)  -->
<svg version="1.1" id="Layer_1" xmlns="http://www.w3.org/2000/svg" xmlns:xlink="http://www.w3.org/1999/xlink" x="0px" y="0px"
	 viewBox="0 0 42 42" style="enable-background:new 0 0 42 42;" xml:space="preserve">
<style type="text/css">
	.st0{fill-rule:evenodd;clip-rule:evenodd;fill:#FFFFFF;}
</style>
<g id="Layer_x5F_1">
	<g id="_277738728">
		<path id="_277738896" class="st0" d="M29.94,12.26C26.23,7.62,19.59,6.24,14.3,9.3c-2.93,1.69-4.9,4.42-5.7,7.45
			c-0.11,0.41-0.47,0.69-0.89,0.69l-2.78,0.02c-0.29,0-0.54-0.12-0.73-0.34c-0.18-0.22-0.25-0.5-0.19-0.78
			c0.96-4.47,3.73-8.51,8-10.98c7.54-4.36,17.07-2.18,22.02,4.77c0.23,0.32,0.67,0.32,0.96,0.04l1.9-1.78
			c0.56-0.52,1.5-0.21,1.43,0.55l-0.91,10.03c-0.06,0.61-0.65,0.96-1.21,0.7l-9.14-4.23c-0.69-0.32-0.49-1.29,0.24-1.51l2.27-0.71
			C30.01,13.1,30.22,12.61,29.94,12.26L29.94,12.26z"/>
		<path id="_277738776" class="st0" d="M12.04,29.74c3.7,4.64,10.34,6.01,15.64,2.95c2.93-1.69,4.9-4.42,5.7-7.45
			c0.11-0.41,0.47-0.69,0.89-0.69l2.78-0.02c0.29,0,0.54,0.12,0.73,0.34c0.18,0.22,0.25,0.5,0.19,0.78c-0.96,4.47-3.73,8.51-8,10.98
			c-7.54,4.36-17.07,2.18-22.02-4.77C7.72,31.53,7.29,31.54,7,31.81l-1.89,1.78c-0.56,0.52-1.5,0.21-1.43-0.55l0.88-10.03
			c0.06-0.61,0.65-0.96,1.21-0.7l9.14,4.23c0.69,0.32,0.49,1.29-0.24,1.51l-2.27,0.71C11.96,28.9,11.75,29.39,12.04,29.74
			L12.04,29.74z"/>
	</g>
</g>
</svg>
