<?xml version="1.0" encoding="utf-8"?>
<!-- Generator: Adobe Illustrator 27.0.1, SVG Export Plug-In . SVG Version: 6.00 Build 0)  -->
<svg version="1.1" id="Layer_1" xmlns="http://www.w3.org/2000/svg" xmlns:xlink="http://www.w3.org/1999/xlink" x="0px" y="0px"
	 viewBox="0 0 75.76 42.17" style="enable-background:new 0 0 75.76 42.17;" xml:space="preserve">
<style type="text/css">
	.st0{fill-opacity:0.051;}
	.st1{fill:url(#SVGID_1_);}
	.st2{fill:#FFFFFF;fill-opacity:0.502;}
	.st3{fill:#272624;}
	.st4{fill:url(#SVGID_00000113336236975381989160000014039631946507638687_);}
	.st5{fill:#76490F;}
	.st6{fill-opacity:0.2;}
	.st7{fill:#FFFFFF;}
</style>
<g id="_1818432093856">
	<path class="st0" d="M65.91,38.53c0-0.2,0-29.83,0-30.03c0-0.13-0.1-0.23-0.23-0.24c-0.2,0-51.67,0-51.87,0
		c-0.13,0-0.23,0.1-0.23,0.23c0,0.2,0,29.83,0,30.03c0,0.13,0.1,0.23,0.23,0.23c0.2,0,51.67,0,51.87,0
		C65.8,38.77,65.91,38.66,65.91,38.53L65.91,38.53z"/>
	<g>
		<g>
			
				<linearGradient id="SVGID_1_" gradientUnits="userSpaceOnUse" x1="15563.8613" y1="-10171.5742" x2="13379.3926" y2="-10171.5742" gradientTransform="matrix(0.0283 0 0 -0.0283 -371.666 -266.7688)">
				<stop  offset="0" style="stop-color:#CC8700"/>
				<stop  offset="1" style="stop-color:#E7C53E"/>
			</linearGradient>
			<path class="st1" d="M66.43,40.43H9.33c-1.3,0-2.36-1.06-2.36-2.36V4.1c0-1.3,1.06-2.36,2.36-2.36h57.11
				c1.3,0,2.36,1.06,2.36,2.36v33.98C68.79,39.37,67.73,40.43,66.43,40.43z"/>
		</g>
	</g>
	<g>
		<path class="st2" d="M51.29,29.14h12.73c0.71,0,1.29,0.58,1.29,1.29v4.65c0,0.71-0.58,1.29-1.29,1.29H51.29
			c-0.71,0-1.29-0.58-1.29-1.29v-4.65C50,29.72,50.58,29.14,51.29,29.14z"/>
		<path class="st3" d="M61.81,38.04v-0.18h0.65v0.57c-0.1,0.08-0.2,0.14-0.31,0.18c-0.11,0.04-0.22,0.06-0.33,0.06
			c-0.15,0-0.29-0.03-0.41-0.1c-0.12-0.06-0.22-0.16-0.28-0.28c-0.06-0.12-0.09-0.26-0.09-0.41c0-0.15,0.03-0.29,0.09-0.42
			c0.06-0.13,0.15-0.23,0.27-0.29c0.12-0.06,0.25-0.09,0.41-0.09c0.11,0,0.21,0.02,0.3,0.05c0.09,0.04,0.16,0.09,0.21,0.15
			c0.05,0.06,0.09,0.15,0.12,0.25l-0.18,0.05c-0.02-0.08-0.05-0.14-0.09-0.19c-0.03-0.04-0.08-0.08-0.15-0.11
			c-0.06-0.03-0.13-0.04-0.21-0.04c-0.09,0-0.17,0.01-0.24,0.04c-0.07,0.03-0.12,0.07-0.16,0.11c-0.04,0.05-0.07,0.1-0.1,0.15
			c-0.04,0.1-0.06,0.2-0.06,0.31c0,0.14,0.02,0.25,0.07,0.35c0.05,0.09,0.12,0.16,0.21,0.21c0.09,0.04,0.19,0.07,0.29,0.07
			c0.09,0,0.17-0.02,0.26-0.05c0.08-0.03,0.15-0.07,0.19-0.11v-0.29L61.81,38.04L61.81,38.04z M62.67,38.08
			c0-0.21,0.06-0.36,0.17-0.46c0.1-0.08,0.21-0.12,0.35-0.12c0.15,0,0.28,0.05,0.38,0.15c0.1,0.1,0.15,0.24,0.15,0.42
			c0,0.14-0.02,0.26-0.06,0.34c-0.04,0.08-0.11,0.15-0.19,0.19c-0.08,0.05-0.17,0.07-0.27,0.07c-0.16,0-0.28-0.05-0.38-0.15
			C62.71,38.41,62.67,38.27,62.67,38.08L62.67,38.08z M62.86,38.08c0,0.14,0.03,0.25,0.09,0.32c0.06,0.07,0.14,0.11,0.24,0.11
			c0.09,0,0.17-0.04,0.24-0.11c0.06-0.07,0.09-0.18,0.09-0.33c0-0.14-0.03-0.24-0.09-0.31c-0.06-0.07-0.14-0.11-0.23-0.11
			c-0.1,0-0.17,0.04-0.24,0.11C62.89,37.83,62.86,37.94,62.86,38.08L62.86,38.08z M63.93,38.64V37.1h0.19v1.54H63.93z M65.14,38.64
			V38.5c-0.07,0.11-0.17,0.17-0.31,0.17c-0.09,0-0.17-0.02-0.25-0.07c-0.07-0.05-0.13-0.12-0.17-0.21c-0.04-0.09-0.06-0.19-0.06-0.3
			c0-0.11,0.02-0.21,0.06-0.3c0.04-0.09,0.09-0.16,0.17-0.21c0.07-0.05,0.16-0.07,0.25-0.07c0.07,0,0.13,0.01,0.18,0.04
			c0.05,0.03,0.1,0.07,0.13,0.11V37.1h0.19v1.54L65.14,38.64L65.14,38.64z M64.54,38.08c0,0.14,0.03,0.25,0.09,0.32
			c0.06,0.07,0.13,0.11,0.21,0.11c0.08,0,0.15-0.03,0.21-0.1c0.06-0.07,0.09-0.17,0.09-0.31c0-0.15-0.03-0.26-0.09-0.34
			c-0.06-0.07-0.13-0.11-0.22-0.11c-0.08,0-0.15,0.03-0.21,0.1C64.57,37.83,64.54,37.94,64.54,38.08L64.54,38.08z"/>
		<path d="M12.32,6.7v2.79h1.42c0.52,0,0.88-0.33,0.88-0.82c0-0.36-0.21-0.6-0.53-0.68c0.24-0.09,0.4-0.32,0.4-0.59
			c0-0.42-0.3-0.7-0.91-0.7H12.32L12.32,6.7z M12.8,7.09h0.68c0.28,0,0.53,0.04,0.53,0.38c0,0.28-0.18,0.38-0.55,0.38H12.8V7.09
			L12.8,7.09z M12.8,8.22h0.73c0.32,0,0.61,0.05,0.61,0.44c0,0.36-0.27,0.44-0.6,0.44H12.8V8.22L12.8,8.22z M16.36,6.7h-0.52
			l-1.08,2.79h0.51l0.27-0.74h1.11l0.27,0.74h0.53L16.36,6.7L16.36,6.7z M16.52,8.38h-0.85l0.44-1.17L16.52,8.38z M19.97,6.7H19.5
			v2.06L18.21,6.7H17.7v2.79h0.46V7.44l1.3,2.06h0.51V6.7z M22.88,6.7h-0.62l-1.24,1.27V6.7h-0.49v2.79h0.49V8.55l0.4-0.4l0.92,1.34
			h0.61l-1.19-1.68L22.88,6.7L22.88,6.7z"/>
		
			<linearGradient id="SVGID_00000050647048689414018910000014486707463601989556_" gradientUnits="userSpaceOnUse" x1="13779.9062" y1="-10079.3359" x2="13641.3584" y2="-9895.6777" gradientTransform="matrix(0.0283 0 0 -0.0283 -371.666 -266.7688)">
			<stop  offset="0" style="stop-color:#DDB427"/>
			<stop  offset="1" style="stop-color:#FCF4C3"/>
		</linearGradient>
		<path style="fill:url(#SVGID_00000050647048689414018910000014486707463601989556_);" d="M13.55,12.99h5.58
			c0.57,0,1.03,0.46,1.03,1.03v3.71c0,0.57-0.46,1.03-1.03,1.03h-5.58c-0.57,0-1.03-0.46-1.03-1.03v-3.71
			C12.52,13.46,12.99,12.99,13.55,12.99z"/>
		<path class="st5" d="M13.49,12.93h2.81l0,0l0,0l0,0l0,0v0l0,0l0,0l0,0l0,0l0,0l0,0l0,0l0,0l0,0l0,0l0,0l0,0l0,0l0,0l0,0l0,0l0,0
			l0,0l0,0h0l0,0l0,0h0l0,0l0,0h0l0,0l0,0l0,0h0h0l0,0h0h0h0l0,0h0h0l0,0l0,0h0l0,0l0,0l0,0l0,0h0l0,0l0,0h0l0,0l0,0l0,0l0,0l0,0
			l0,0l0,0l0,0l0.01,0l0,0l0,0l0,0l0,0l0,0l0,0l0,0l0,0l0,0l0,0l0,0l0,0l0,0l0,0l0,0l0,0l0,0l0,0l0,0l0,0h2.81
			c0.29,0,0.55,0.12,0.74,0.31c0.19,0.19,0.31,0.45,0.31,0.74v3.79c0,0.29-0.12,0.55-0.31,0.74c-0.19,0.19-0.45,0.31-0.74,0.31
			h-2.81l0,0l0,0l0,0l0,0l0,0l0,0l0,0l0,0l0,0l0,0l0,0h0l0,0l0,0l0,0l0,0l0,0l0,0l0,0l0,0l-0.01,0h0l0,0l0,0v0l0,0l0,0l0,0l0,0l0,0
			l0,0l0,0h0l0,0l0,0h0l0,0h0l0,0h0h0l0,0l0,0h0h0h0l0,0h0h0l0,0l0,0l0,0l0,0h0l0,0l0,0l0,0l0,0h0l0,0l0,0l0,0l0,0h0l0,0l0,0l0,0
			l0,0l0,0l0,0l0,0l0,0l0,0l0,0l0,0l0,0l0,0l0,0v0l0,0l0,0l0,0l0,0h-2.81c-0.29,0-0.55-0.12-0.74-0.31
			c-0.19-0.19-0.31-0.45-0.31-0.74v-3.79c0-0.29,0.12-0.55,0.31-0.74l0,0C12.94,13.05,13.2,12.93,13.49,12.93L13.49,12.93z
			 M16.34,13.49c0.08,0,0.15,0.03,0.2,0.08c0.05,0.05,0.08,0.12,0.08,0.2c0,0.08-0.03,0.15-0.08,0.2c-0.05,0.05-0.12,0.08-0.2,0.08
			c-0.08,0-0.14-0.03-0.2-0.08c-0.05-0.05-0.08-0.12-0.08-0.2c0-0.08,0.03-0.14,0.08-0.19l0,0C16.2,13.52,16.27,13.49,16.34,13.49z
			 M16.39,13.72c-0.01-0.01-0.03-0.02-0.05-0.02c-0.02,0-0.03,0.01-0.05,0.02l0,0c-0.01,0.01-0.02,0.03-0.02,0.05
			c0,0.02,0.01,0.03,0.02,0.05c0.01,0.01,0.03,0.02,0.05,0.02c0.02,0,0.03-0.01,0.05-0.02c0.01-0.01,0.02-0.03,0.02-0.05
			C16.41,13.75,16.4,13.73,16.39,13.72z M16.34,13.16c-0.27,0.21-0.54,0.43-0.74,0.7c-0.21,0.29-0.34,0.66-0.31,1.16
			c0.1,0.3,0.15,0.58,0.15,0.86c0,0.28-0.05,0.56-0.15,0.86c-0.03,0.5,0.1,0.87,0.31,1.16c0.2,0.28,0.47,0.5,0.74,0.7
			c0.27-0.21,0.54-0.43,0.74-0.7c0.21-0.29,0.34-0.66,0.31-1.16c-0.1-0.3-0.15-0.58-0.15-0.86c0-0.28,0.05-0.56,0.16-0.87l0.02-0.07
			h2.62v-0.95c0-0.23-0.09-0.44-0.25-0.59c-0.15-0.15-0.36-0.25-0.59-0.25h-2.53c0.1,0.08,0.21,0.17,0.3,0.27
			c0.18,0.17,0.34,0.37,0.45,0.61c0.03,0.05,0,0.12-0.05,0.14c-0.05,0.03-0.12,0-0.14-0.05c-0.1-0.21-0.25-0.39-0.41-0.55
			C16.68,13.41,16.51,13.28,16.34,13.16L16.34,13.16z M15.08,14.93c-0.01-0.51,0.13-0.89,0.35-1.19c0.17-0.23,0.37-0.42,0.59-0.6
			h-2.53c-0.23,0-0.44,0.09-0.59,0.25l0,0c-0.15,0.15-0.25,0.36-0.25,0.59v0.95H15.08L15.08,14.93z M16.02,18.61
			c-0.22-0.18-0.42-0.37-0.59-0.6c-0.22-0.31-0.36-0.69-0.35-1.19h-2.43v0.95c0,0.23,0.09,0.44,0.25,0.59
			c0.15,0.15,0.36,0.25,0.59,0.25L16.02,18.61L16.02,18.61z M12.65,16.61h2.47c0.08-0.26,0.12-0.49,0.12-0.73
			c0-0.24-0.04-0.48-0.12-0.73h-2.47V16.61z M17.61,16.82c0.01,0.51-0.13,0.89-0.35,1.19c-0.17,0.23-0.37,0.42-0.59,0.6h2.53
			c0.23,0,0.44-0.09,0.59-0.25c0.15-0.15,0.25-0.36,0.25-0.59v-0.95L17.61,16.82L17.61,16.82z M20.04,15.15h-2.47
			c-0.08,0.26-0.12,0.49-0.12,0.73c0,0.24,0.04,0.48,0.12,0.73h2.47V15.15z"/>
		<path d="M61.65,14.92l0.04-0.04c0.07-0.07,0.15-0.1,0.24-0.09c0.09,0.01,0.17,0.06,0.22,0.14c0.42,0.65,0.41,1.31,0,1.95
			c-0.05,0.08-0.13,0.12-0.22,0.13c-0.09,0.01-0.18-0.02-0.24-0.09l-0.04-0.04c-0.1-0.1-0.12-0.25-0.05-0.37
			c0.22-0.36,0.22-0.88,0-1.25C61.53,15.17,61.55,15.02,61.65,14.92L61.65,14.92z M63.43,18.3c1.14-1.33,1.18-3.4,0.02-4.78
			c-0.1-0.12-0.09-0.29,0.02-0.41l0.03-0.03c0.06-0.06,0.14-0.09,0.22-0.09c0.09,0,0.16,0.04,0.22,0.11c1.44,1.69,1.4,4-0.02,5.63
			c-0.06,0.07-0.13,0.1-0.22,0.1c-0.09,0-0.16-0.03-0.22-0.09l-0.03-0.03C63.33,18.59,63.33,18.41,63.43,18.3L63.43,18.3z
			 M62.53,17.42c0.66-0.87,0.67-2.14,0-3.02c-0.09-0.12-0.08-0.29,0.03-0.39l0.03-0.03c0.06-0.06,0.14-0.09,0.23-0.09
			c0.09,0.01,0.16,0.04,0.22,0.11c0.93,1.19,0.92,2.65,0,3.82c-0.05,0.07-0.13,0.11-0.22,0.11c-0.09,0.01-0.17-0.02-0.23-0.09
			l-0.04-0.04C62.45,17.71,62.44,17.54,62.53,17.42L62.53,17.42z"/>
		<path class="st6" d="M13.26,36.44c-0.07,0-0.14-0.02-0.19-0.05c-0.05-0.04-0.1-0.09-0.14-0.17l-0.25-0.49
			c-0.01-0.03-0.03-0.06-0.03-0.09c-0.01-0.03-0.01-0.07-0.01-0.11c0-0.04,0-0.08,0.01-0.11c0.01-0.03,0.02-0.07,0.03-0.09
			l0.25-0.49c0.04-0.08,0.08-0.13,0.14-0.17c0.05-0.04,0.12-0.05,0.19-0.05h0.42c0.04,0,0.07,0.01,0.1,0.03
			c0.02,0.02,0.04,0.05,0.04,0.09c0,0.03-0.01,0.06-0.04,0.08c-0.02,0.02-0.06,0.03-0.1,0.03h-0.42c-0.02,0-0.04,0.01-0.07,0.02
			c-0.02,0.01-0.04,0.03-0.05,0.05l-0.24,0.49c-0.01,0.02-0.01,0.03-0.02,0.05c0,0.02-0.01,0.04-0.01,0.06c0,0.02,0,0.04,0.01,0.06
			c0,0.02,0.01,0.04,0.02,0.05l0.24,0.49c0.01,0.02,0.03,0.04,0.05,0.06c0.02,0.01,0.04,0.02,0.07,0.02h0.42
			c0.04,0,0.07,0.01,0.1,0.03c0.02,0.02,0.04,0.05,0.04,0.09c0,0.03-0.01,0.06-0.04,0.09c-0.02,0.02-0.06,0.03-0.1,0.03L13.26,36.44
			L13.26,36.44z M14.97,35.15l-0.19,0.65h0.38L14.97,35.15z M15.1,34.74l0.45,1.54c0,0.01,0.01,0.02,0.01,0.02c0,0.01,0,0.02,0,0.02
			c0,0.03-0.01,0.06-0.03,0.08c-0.02,0.02-0.05,0.03-0.08,0.03c-0.03,0-0.05-0.01-0.07-0.03c-0.02-0.02-0.04-0.04-0.04-0.07
			l-0.09-0.3h-0.52l-0.09,0.3c-0.01,0.03-0.03,0.06-0.05,0.08c-0.02,0.02-0.04,0.02-0.08,0.02c-0.03,0-0.06-0.01-0.08-0.03
			c-0.02-0.02-0.03-0.05-0.03-0.08c0-0.01,0-0.02,0-0.03c0-0.01,0-0.01,0-0.02l0.45-1.54c0.01-0.05,0.03-0.08,0.05-0.1
			c0.02-0.02,0.05-0.03,0.08-0.03c0.03,0,0.06,0.01,0.08,0.03C15.07,34.65,15.09,34.69,15.1,34.74L15.1,34.74z M16.38,34.85v0.36
			h0.57c0.03,0,0.06-0.01,0.08-0.04c0.02-0.02,0.04-0.05,0.04-0.08v-0.12c0-0.03-0.01-0.06-0.04-0.08
			c-0.02-0.02-0.05-0.04-0.08-0.04L16.38,34.85L16.38,34.85z M16.14,34.61h0.81c0.1,0,0.18,0.03,0.25,0.11
			c0.07,0.07,0.11,0.15,0.11,0.25v0.12c0,0.1-0.03,0.18-0.11,0.25c-0.07,0.07-0.15,0.11-0.25,0.11h-0.13l0.46,0.81
			c0.01,0.01,0.01,0.03,0.02,0.04c0,0.01,0.01,0.02,0.01,0.03c0,0.03-0.01,0.06-0.03,0.08c-0.02,0.02-0.05,0.03-0.08,0.03
			c-0.02,0-0.04-0.01-0.06-0.02c-0.02-0.01-0.03-0.03-0.05-0.05l-0.53-0.93h-0.17v0.86c0,0.04-0.01,0.07-0.03,0.1
			c-0.02,0.02-0.05,0.04-0.09,0.04c-0.03,0-0.06-0.01-0.09-0.04c-0.02-0.03-0.03-0.06-0.03-0.1V34.61z M18.44,34.85h-0.08v1.36h0.08
			c0.02,0,0.05-0.01,0.07-0.02c0.02-0.01,0.04-0.03,0.05-0.05l0.24-0.49c0.01-0.02,0.01-0.03,0.02-0.05c0-0.02,0.01-0.04,0.01-0.06
			c0-0.02,0-0.04-0.01-0.06c0-0.02-0.01-0.04-0.02-0.05l-0.24-0.49c-0.01-0.02-0.03-0.04-0.05-0.06
			C18.48,34.85,18.46,34.85,18.44,34.85L18.44,34.85z M18.44,34.61c0.07,0,0.14,0.02,0.19,0.05c0.05,0.04,0.1,0.09,0.14,0.17
			l0.25,0.49c0.01,0.03,0.02,0.06,0.03,0.09c0.01,0.03,0.01,0.07,0.01,0.11c0,0.04,0,0.08-0.01,0.11c-0.01,0.03-0.02,0.07-0.03,0.09
			l-0.25,0.49c-0.04,0.08-0.08,0.13-0.14,0.17c-0.05,0.04-0.12,0.05-0.19,0.05h-0.42c-0.04,0-0.07-0.01-0.1-0.03
			c-0.02-0.02-0.04-0.05-0.04-0.09c0-0.03,0.01-0.06,0.04-0.09c0.03-0.02,0.06-0.03,0.1-0.03h0.1v-1.36h-0.1
			c-0.04,0-0.07-0.01-0.1-0.03c-0.02-0.02-0.04-0.05-0.04-0.09c0-0.04,0.01-0.06,0.04-0.09c0.03-0.02,0.06-0.03,0.1-0.03
			L18.44,34.61L18.44,34.61z M19.88,34.74v0.67h0.7v-0.67c0-0.04,0.01-0.07,0.03-0.1c0.02-0.02,0.05-0.04,0.09-0.04
			c0.03,0,0.06,0.01,0.08,0.04c0.02,0.03,0.03,0.06,0.03,0.1v1.57c0,0.04-0.01,0.07-0.03,0.1c-0.02,0.02-0.05,0.04-0.09,0.04
			c-0.03,0-0.06-0.01-0.09-0.04c-0.02-0.03-0.03-0.06-0.03-0.1v-0.67h-0.7v0.67c0,0.04-0.01,0.07-0.03,0.1
			c-0.02,0.02-0.05,0.04-0.09,0.04c-0.03,0-0.06-0.01-0.09-0.04c-0.02-0.03-0.03-0.06-0.03-0.1v-1.57c0-0.04,0.01-0.07,0.03-0.1
			c0.02-0.02,0.05-0.04,0.09-0.04c0.03,0,0.06,0.01,0.08,0.04C19.87,34.67,19.88,34.7,19.88,34.74L19.88,34.74z M22.04,34.89
			c-0.01-0.02-0.02-0.03-0.03-0.04c-0.01-0.01-0.02-0.01-0.03-0.01c-0.01,0-0.03,0-0.04,0.01c-0.01,0.01-0.02,0.02-0.03,0.03
			l-0.26,0.5c-0.01,0.02-0.02,0.04-0.02,0.06c-0.01,0.02-0.01,0.05-0.01,0.07c0,0.02,0,0.05,0.01,0.07
			c0.01,0.02,0.01,0.04,0.02,0.06l0.26,0.5c0.01,0.02,0.02,0.03,0.03,0.04c0.01,0.01,0.02,0.01,0.03,0.01c0.01,0,0.03,0,0.04-0.01
			c0.01-0.01,0.02-0.02,0.03-0.03l0.25-0.5c0.01-0.02,0.02-0.04,0.02-0.06c0.01-0.02,0.01-0.05,0.01-0.07c0-0.02,0-0.05-0.01-0.07
			c-0.01-0.02-0.01-0.04-0.02-0.06L22.04,34.89L22.04,34.89z M22.26,34.81l0.25,0.49c0.02,0.03,0.03,0.07,0.04,0.11
			c0.01,0.04,0.01,0.08,0.01,0.12c0,0.04,0,0.09-0.01,0.13c-0.01,0.04-0.02,0.08-0.04,0.11l-0.25,0.49
			c-0.04,0.07-0.08,0.12-0.12,0.15c-0.04,0.03-0.1,0.05-0.16,0.05c-0.07,0-0.12-0.02-0.17-0.05c-0.04-0.03-0.09-0.08-0.12-0.15
			l-0.25-0.49c-0.02-0.03-0.03-0.07-0.04-0.11c-0.01-0.04-0.01-0.08-0.01-0.12c0-0.04,0-0.08,0.01-0.12
			c0.01-0.04,0.02-0.08,0.04-0.11l0.25-0.49c0.04-0.07,0.08-0.12,0.12-0.15c0.04-0.03,0.1-0.05,0.17-0.05
			c0.07,0,0.12,0.02,0.16,0.05C22.18,34.68,22.23,34.74,22.26,34.81z M23.38,34.74v1.46h0.8c0.04,0,0.07,0.01,0.1,0.03
			c0.02,0.02,0.04,0.05,0.04,0.09c0,0.03-0.01,0.06-0.04,0.09c-0.02,0.02-0.06,0.03-0.1,0.03h-1.04v-1.7c0-0.04,0.01-0.07,0.03-0.1
			c0.02-0.02,0.05-0.04,0.09-0.04c0.03,0,0.06,0.01,0.08,0.04C23.37,34.67,23.38,34.7,23.38,34.74L23.38,34.74z M25.44,34.85h-0.08
			v1.36h0.08c0.02,0,0.05-0.01,0.07-0.02c0.02-0.01,0.04-0.03,0.05-0.05l0.24-0.49c0.01-0.02,0.01-0.03,0.02-0.05
			c0-0.02,0.01-0.04,0.01-0.06c0-0.02,0-0.04-0.01-0.06c0-0.02-0.01-0.04-0.02-0.05l-0.24-0.49c-0.01-0.02-0.03-0.04-0.05-0.06
			C25.49,34.85,25.47,34.85,25.44,34.85L25.44,34.85z M25.44,34.61c0.07,0,0.14,0.02,0.19,0.05c0.05,0.04,0.1,0.09,0.14,0.17
			l0.25,0.49c0.01,0.03,0.02,0.06,0.03,0.09c0.01,0.03,0.01,0.07,0.01,0.11c0,0.04,0,0.08-0.01,0.11c-0.01,0.03-0.02,0.07-0.03,0.09
			l-0.25,0.49c-0.04,0.08-0.08,0.13-0.14,0.17c-0.05,0.04-0.12,0.05-0.19,0.05h-0.42c-0.04,0-0.07-0.01-0.1-0.03
			c-0.02-0.02-0.04-0.05-0.04-0.09c0-0.03,0.01-0.06,0.04-0.09c0.02-0.02,0.06-0.03,0.1-0.03h0.1v-1.36h-0.1
			c-0.04,0-0.07-0.01-0.1-0.03c-0.02-0.02-0.04-0.05-0.04-0.09c0-0.04,0.01-0.06,0.04-0.09c0.02-0.02,0.06-0.03,0.1-0.03
			L25.44,34.61L25.44,34.61z M26.64,34.61h1.04c0.04,0,0.07,0.01,0.1,0.03c0.02,0.02,0.04,0.05,0.04,0.09
			c0,0.03-0.01,0.06-0.04,0.08c-0.02,0.02-0.06,0.03-0.1,0.03h-0.8v0.56h0.34c0.04,0,0.07,0.01,0.09,0.03
			c0.02,0.02,0.04,0.05,0.04,0.09c0,0.03-0.01,0.06-0.04,0.09c-0.02,0.02-0.06,0.03-0.09,0.03h-0.34v0.56h0.8
			c0.04,0,0.07,0.01,0.1,0.03c0.02,0.02,0.04,0.05,0.04,0.09c0,0.03-0.01,0.06-0.04,0.09c-0.02,0.02-0.06,0.03-0.1,0.03h-1.04
			L26.64,34.61L26.64,34.61z M28.63,34.85v0.36h0.57c0.03,0,0.06-0.01,0.08-0.04c0.02-0.02,0.04-0.05,0.04-0.08v-0.12
			c0-0.03-0.01-0.06-0.04-0.08c-0.02-0.02-0.05-0.04-0.08-0.04L28.63,34.85L28.63,34.85z M28.39,34.61h0.81
			c0.1,0,0.18,0.03,0.25,0.11c0.07,0.07,0.11,0.15,0.11,0.25v0.12c0,0.1-0.03,0.18-0.11,0.25c-0.07,0.07-0.15,0.11-0.25,0.11h-0.13
			l0.46,0.81c0.01,0.01,0.01,0.03,0.02,0.04c0,0.01,0.01,0.02,0.01,0.03c0,0.03-0.01,0.06-0.03,0.08c-0.02,0.02-0.05,0.03-0.08,0.03
			c-0.02,0-0.04-0.01-0.06-0.02c-0.02-0.01-0.03-0.03-0.05-0.05l-0.53-0.93h-0.17v0.86c0,0.04-0.01,0.07-0.03,0.1
			c-0.02,0.02-0.05,0.04-0.09,0.04c-0.03,0-0.06-0.01-0.09-0.04c-0.02-0.03-0.03-0.06-0.03-0.1V34.61z M31.02,34.61h0.31l0.62,1.41
			v-1.28c0-0.04,0.01-0.07,0.03-0.1c0.02-0.02,0.05-0.04,0.09-0.04c0.03,0,0.06,0.01,0.08,0.04c0.02,0.03,0.03,0.06,0.03,0.1v1.7
			h-0.32l-0.62-1.41v1.28c0,0.04-0.01,0.07-0.03,0.1c-0.02,0.02-0.05,0.04-0.09,0.04c-0.03,0-0.06-0.01-0.09-0.04
			c-0.02-0.03-0.03-0.06-0.03-0.1V34.61z M33.35,35.15l-0.19,0.65h0.38L33.35,35.15z M33.48,34.74l0.45,1.54
			c0,0.01,0.01,0.02,0.01,0.02c0,0.01,0,0.02,0,0.02c0,0.03-0.01,0.06-0.03,0.08c-0.02,0.02-0.05,0.03-0.08,0.03
			c-0.03,0-0.05-0.01-0.07-0.03c-0.02-0.02-0.04-0.04-0.04-0.07l-0.09-0.3H33.1l-0.09,0.3c-0.01,0.03-0.03,0.06-0.05,0.08
			c-0.02,0.02-0.04,0.02-0.08,0.02c-0.03,0-0.06-0.01-0.08-0.03c-0.02-0.02-0.03-0.05-0.03-0.08c0-0.01,0-0.02,0-0.03
			c0-0.01,0-0.01,0-0.02l0.45-1.54c0.01-0.05,0.03-0.08,0.05-0.1c0.02-0.02,0.05-0.03,0.08-0.03c0.03,0,0.06,0.01,0.08,0.03
			C33.45,34.65,33.47,34.69,33.48,34.74L33.48,34.74z M34.52,34.61h0.29l0.29,0.41l0.29-0.41h0.29v1.7c0,0.04-0.01,0.07-0.03,0.1
			c-0.02,0.02-0.05,0.04-0.09,0.04c-0.03,0-0.06-0.01-0.09-0.04c-0.02-0.03-0.03-0.06-0.03-0.1v-1.37l-0.23,0.32v0.05
			c0,0.04-0.01,0.07-0.03,0.1c-0.02,0.02-0.05,0.04-0.09,0.04c-0.03,0-0.06-0.01-0.09-0.04c-0.02-0.02-0.03-0.06-0.03-0.1v-0.05
			l-0.23-0.32v1.37c0,0.04-0.01,0.07-0.03,0.1c-0.02,0.02-0.05,0.04-0.09,0.04c-0.03,0-0.06-0.01-0.09-0.04
			c-0.02-0.03-0.03-0.06-0.03-0.1L34.52,34.61L34.52,34.61z M36.27,34.61h1.04c0.04,0,0.07,0.01,0.1,0.03
			c0.02,0.02,0.04,0.05,0.04,0.09c0,0.03-0.01,0.06-0.04,0.08c-0.03,0.02-0.06,0.03-0.1,0.03h-0.8v0.56h0.34
			c0.04,0,0.07,0.01,0.09,0.03c0.02,0.02,0.04,0.05,0.04,0.09c0,0.03-0.01,0.06-0.04,0.09c-0.02,0.02-0.06,0.03-0.09,0.03h-0.34
			v0.56h0.8c0.04,0,0.07,0.01,0.1,0.03c0.02,0.02,0.04,0.05,0.04,0.09c0,0.03-0.01,0.06-0.04,0.09c-0.03,0.02-0.06,0.03-0.1,0.03
			h-1.04V34.61L36.27,34.61z"/>
		<path class="st6" d="M12.87,31.72c0-0.08-0.05-0.13-0.12-0.13c-0.07,0-0.12,0.05-0.12,0.13v1.35c0,0.2,0.16,0.36,0.36,0.36h0.46
			c0.2,0,0.36-0.16,0.36-0.36v-1.35c0-0.08-0.05-0.13-0.12-0.13c-0.07,0-0.12,0.05-0.12,0.13v1.35c0,0.07-0.06,0.12-0.12,0.12h-0.46
			c-0.06,0-0.12-0.05-0.12-0.12L12.87,31.72L12.87,31.72z M14.65,31.58c-0.15,0-0.27,0.12-0.27,0.27c0,0.07,0.03,0.12,0.07,0.19
			l0.85,1.1c0.01,0.01,0.01,0.01,0.01,0.02c0,0.02-0.01,0.03-0.03,0.03h-0.59c-0.03,0-0.07-0.03-0.08-0.06
			c-0.02-0.08-0.03-0.14-0.12-0.14c-0.07,0-0.12,0.05-0.12,0.13c0,0.15,0.14,0.31,0.32,0.31h0.59c0.15,0,0.27-0.12,0.27-0.27
			c0-0.07-0.03-0.12-0.07-0.19l-0.85-1.1c-0.01-0.01-0.01-0.01-0.01-0.02c0-0.01,0.01-0.03,0.03-0.03h0.59
			c0.03,0,0.07,0.03,0.08,0.06c0.02,0.08,0.03,0.14,0.12,0.14c0.07,0,0.12-0.05,0.12-0.13c0-0.15-0.14-0.31-0.32-0.31L14.65,31.58
			L14.65,31.58z M16.69,31.58h-0.42c-0.08,0-0.13,0.05-0.13,0.12c0,0.07,0.05,0.12,0.13,0.12h0.1v1.36h-0.1
			c-0.08,0-0.13,0.05-0.13,0.12s0.05,0.12,0.13,0.12h0.42c0.15,0,0.26-0.07,0.33-0.22l0.25-0.49c0.03-0.06,0.04-0.12,0.04-0.2
			c0-0.08-0.01-0.15-0.04-0.2l-0.25-0.49C16.94,31.66,16.84,31.58,16.69,31.58L16.69,31.58z M16.69,31.82
			c0.05,0,0.09,0.03,0.11,0.08l0.24,0.49c0.01,0.03,0.02,0.07,0.02,0.11c0,0.05-0.01,0.08-0.02,0.11l-0.24,0.49
			c-0.02,0.05-0.07,0.07-0.11,0.07h-0.08v-1.36L16.69,31.82L16.69,31.82z"/>
		<path class="st6" d="M37.97,31.58c-0.08,0-0.13,0.05-0.13,0.12c0,0.07,0.05,0.12,0.13,0.12h0.33v1.36h-0.33
			c-0.08,0-0.13,0.05-0.13,0.12s0.05,0.12,0.13,0.12h0.91c0.08,0,0.13-0.05,0.13-0.12v-0.59c0-0.08-0.05-0.13-0.12-0.13
			c-0.07,0-0.12,0.05-0.12,0.13v0.47h-0.23v-1.6H37.97z M39.72,31.58c-0.08,0-0.13,0.05-0.13,0.12c0,0.07,0.05,0.12,0.13,0.12h0.33
			v1.36h-0.33c-0.08,0-0.13,0.05-0.13,0.12s0.05,0.12,0.13,0.12h0.91c0.08,0,0.13-0.05,0.13-0.12v-0.59c0-0.08-0.05-0.13-0.12-0.13
			c-0.07,0-0.12,0.05-0.12,0.13v0.47h-0.23v-1.6H39.72z M42.49,31.77c0.01-0.02,0.02-0.05,0.02-0.07c0-0.07-0.06-0.12-0.12-0.12
			c-0.05,0-0.08,0.02-0.11,0.07l-0.92,1.58c-0.01,0.02-0.02,0.05-0.02,0.07c0,0.07,0.05,0.12,0.12,0.12c0.05,0,0.08-0.02,0.11-0.07
			L42.49,31.77L42.49,31.77z M43.22,31.58c-0.08,0-0.13,0.05-0.13,0.12c0,0.07,0.05,0.12,0.13,0.12h0.8v0.44
			c0,0.06-0.05,0.12-0.12,0.12h-0.45c-0.08,0-0.13,0.05-0.13,0.12c0,0.07,0.05,0.12,0.13,0.12h0.45c0.07,0,0.12,0.06,0.12,0.12v0.44
			h-0.8c-0.08,0-0.13,0.05-0.13,0.12s0.05,0.12,0.13,0.12h0.8c0.13,0,0.24-0.11,0.24-0.24v-0.44c0-0.08-0.03-0.16-0.09-0.24
			c0.06-0.08,0.09-0.15,0.09-0.24v-0.44c0-0.13-0.11-0.24-0.24-0.24H43.22z M45.07,31.58v1.04h0.7v0.56h-0.53
			c-0.02,0-0.03-0.01-0.04-0.01l-0.18-0.07c-0.02-0.01-0.04-0.01-0.06-0.01c-0.07,0-0.12,0.05-0.12,0.12c0,0.05,0.03,0.09,0.08,0.12
			l0.19,0.08c0.04,0.02,0.09,0.03,0.14,0.03h0.53c0.13,0,0.24-0.11,0.24-0.24v-0.56c0-0.13-0.11-0.24-0.24-0.24h-0.46v-0.56h0.57
			c0.08,0,0.13-0.05,0.13-0.12c0-0.07-0.05-0.12-0.13-0.12L45.07,31.58L45.07,31.58z"/>
		<path class="st7" d="M13.21,36.37c-0.07,0-0.14-0.02-0.19-0.05c-0.05-0.04-0.1-0.09-0.14-0.17l-0.25-0.49
			c-0.01-0.03-0.03-0.06-0.03-0.09c-0.01-0.03-0.01-0.07-0.01-0.11c0-0.04,0-0.08,0.01-0.11c0.01-0.03,0.02-0.07,0.03-0.09
			l0.25-0.49c0.04-0.08,0.08-0.13,0.14-0.17c0.05-0.04,0.12-0.05,0.19-0.05h0.42c0.04,0,0.07,0.01,0.1,0.03
			c0.02,0.02,0.04,0.05,0.04,0.09c0,0.03-0.01,0.06-0.04,0.08c-0.02,0.02-0.06,0.03-0.1,0.03h-0.42c-0.02,0-0.04,0.01-0.07,0.02
			c-0.02,0.01-0.04,0.03-0.05,0.05l-0.24,0.49c-0.01,0.02-0.01,0.03-0.02,0.05c0,0.02-0.01,0.04-0.01,0.06c0,0.02,0,0.04,0.01,0.06
			c0,0.02,0.01,0.04,0.02,0.05l0.24,0.49c0.01,0.02,0.03,0.04,0.05,0.06c0.02,0.01,0.04,0.02,0.07,0.02h0.42
			c0.04,0,0.07,0.01,0.1,0.03c0.02,0.02,0.04,0.05,0.04,0.09c0,0.03-0.01,0.06-0.04,0.09c-0.02,0.02-0.06,0.03-0.1,0.03L13.21,36.37
			L13.21,36.37z M14.93,35.08l-0.19,0.65h0.38L14.93,35.08L14.93,35.08z M15.05,34.67l0.45,1.54c0,0.01,0.01,0.02,0.01,0.02
			c0,0.01,0,0.02,0,0.02c0,0.03-0.01,0.06-0.03,0.08c-0.02,0.02-0.05,0.03-0.08,0.03c-0.03,0-0.05-0.01-0.07-0.03
			c-0.02-0.02-0.04-0.04-0.04-0.07l-0.09-0.3h-0.52l-0.09,0.3c-0.01,0.03-0.03,0.06-0.05,0.08c-0.02,0.02-0.04,0.02-0.08,0.02
			c-0.03,0-0.06-0.01-0.08-0.03c-0.02-0.02-0.03-0.05-0.03-0.08c0-0.01,0-0.02,0-0.03c0-0.01,0-0.01,0-0.02l0.45-1.54
			c0.01-0.05,0.03-0.08,0.05-0.1c0.02-0.02,0.05-0.03,0.08-0.03c0.03,0,0.06,0.01,0.08,0.03C15.02,34.58,15.04,34.61,15.05,34.67
			L15.05,34.67z M16.33,34.77v0.36h0.57c0.03,0,0.06-0.01,0.08-0.04c0.02-0.02,0.04-0.05,0.04-0.08v-0.12
			c0-0.03-0.01-0.06-0.04-0.08c-0.02-0.02-0.05-0.04-0.08-0.04L16.33,34.77L16.33,34.77z M16.09,34.53h0.81
			c0.1,0,0.18,0.03,0.25,0.11c0.07,0.07,0.11,0.15,0.11,0.25v0.12c0,0.1-0.03,0.18-0.11,0.25c-0.07,0.07-0.15,0.11-0.25,0.11h-0.13
			l0.46,0.81c0.01,0.01,0.01,0.03,0.02,0.04c0,0.01,0.01,0.02,0.01,0.03c0,0.03-0.01,0.06-0.03,0.08c-0.02,0.02-0.05,0.03-0.08,0.03
			c-0.02,0-0.04-0.01-0.06-0.02c-0.02-0.01-0.03-0.03-0.05-0.05l-0.53-0.93h-0.17v0.86c0,0.04-0.01,0.07-0.03,0.1
			c-0.02,0.02-0.05,0.04-0.09,0.04c-0.03,0-0.06-0.01-0.09-0.04c-0.02-0.03-0.03-0.06-0.03-0.1V34.53L16.09,34.53z M18.39,34.77
			h-0.08v1.36h0.08c0.02,0,0.05-0.01,0.07-0.02c0.02-0.01,0.04-0.03,0.05-0.05l0.24-0.49c0.01-0.02,0.01-0.03,0.02-0.05
			c0-0.02,0.01-0.04,0.01-0.06c0-0.02,0-0.04-0.01-0.06c0-0.02-0.01-0.04-0.02-0.05l-0.24-0.49c-0.01-0.02-0.03-0.04-0.05-0.06
			C18.44,34.78,18.42,34.77,18.39,34.77L18.39,34.77z M18.39,34.53c0.07,0,0.14,0.02,0.19,0.05c0.05,0.04,0.1,0.09,0.14,0.17
			l0.25,0.49c0.01,0.03,0.02,0.06,0.03,0.09c0.01,0.03,0.01,0.07,0.01,0.11c0,0.04,0,0.08-0.01,0.11c-0.01,0.03-0.02,0.07-0.03,0.09
			l-0.25,0.49c-0.04,0.08-0.08,0.13-0.14,0.17c-0.05,0.04-0.12,0.05-0.19,0.05h-0.42c-0.04,0-0.07-0.01-0.1-0.03
			c-0.02-0.02-0.04-0.05-0.04-0.09c0-0.03,0.01-0.06,0.04-0.09c0.03-0.02,0.06-0.03,0.1-0.03h0.1v-1.36h-0.1
			c-0.04,0-0.07-0.01-0.1-0.03c-0.02-0.02-0.04-0.05-0.04-0.09c0-0.04,0.01-0.06,0.04-0.09c0.03-0.02,0.06-0.03,0.1-0.03H18.39z
			 M19.83,34.67v0.67h0.7v-0.67c0-0.04,0.01-0.07,0.03-0.1c0.02-0.02,0.05-0.04,0.09-0.04c0.03,0,0.06,0.01,0.08,0.04
			c0.02,0.03,0.03,0.06,0.03,0.1v1.57c0,0.04-0.01,0.07-0.03,0.1c-0.02,0.02-0.05,0.04-0.09,0.04c-0.03,0-0.06-0.01-0.09-0.04
			c-0.02-0.03-0.03-0.06-0.03-0.1v-0.67h-0.7v0.67c0,0.04-0.01,0.07-0.03,0.1c-0.02,0.02-0.05,0.04-0.09,0.04
			c-0.03,0-0.06-0.01-0.09-0.04c-0.02-0.03-0.03-0.06-0.03-0.1v-1.57c0-0.04,0.01-0.07,0.03-0.1c0.02-0.02,0.05-0.04,0.09-0.04
			c0.03,0,0.06,0.01,0.08,0.04C19.82,34.6,19.83,34.63,19.83,34.67L19.83,34.67z M21.99,34.82c-0.01-0.02-0.02-0.03-0.03-0.04
			c-0.01-0.01-0.02-0.01-0.03-0.01c-0.01,0-0.03,0-0.04,0.01c-0.01,0.01-0.02,0.02-0.03,0.03l-0.26,0.5
			c-0.01,0.02-0.02,0.04-0.02,0.06c-0.01,0.02-0.01,0.05-0.01,0.07c0,0.02,0,0.05,0.01,0.07c0.01,0.02,0.01,0.04,0.02,0.06l0.26,0.5
			c0.01,0.02,0.02,0.03,0.03,0.04c0.01,0.01,0.02,0.01,0.03,0.01c0.01,0,0.03,0,0.04-0.01c0.01-0.01,0.02-0.02,0.03-0.03l0.25-0.5
			c0.01-0.02,0.02-0.04,0.02-0.06c0.01-0.02,0.01-0.05,0.01-0.07c0-0.02,0-0.05-0.01-0.07c-0.01-0.03-0.01-0.04-0.02-0.06
			L21.99,34.82z M22.22,34.73l0.25,0.49c0.02,0.03,0.03,0.07,0.04,0.11c0.01,0.04,0.01,0.08,0.01,0.12c0,0.04,0,0.09-0.01,0.13
			c-0.01,0.04-0.02,0.08-0.04,0.11l-0.25,0.49c-0.04,0.07-0.08,0.12-0.12,0.15c-0.04,0.03-0.1,0.05-0.16,0.05
			c-0.07,0-0.12-0.02-0.17-0.05c-0.04-0.03-0.09-0.08-0.12-0.15l-0.25-0.49c-0.02-0.03-0.03-0.07-0.04-0.11
			c-0.01-0.04-0.01-0.08-0.01-0.12c0-0.04,0-0.08,0.01-0.12c0.01-0.04,0.02-0.08,0.04-0.11l0.25-0.49c0.04-0.07,0.08-0.12,0.12-0.15
			c0.04-0.03,0.1-0.05,0.17-0.05c0.07,0,0.12,0.02,0.16,0.05C22.14,34.61,22.18,34.66,22.22,34.73z M23.33,34.67v1.46h0.8
			c0.04,0,0.07,0.01,0.1,0.03c0.02,0.02,0.04,0.05,0.04,0.09c0,0.03-0.01,0.06-0.04,0.09c-0.02,0.02-0.06,0.03-0.1,0.03h-1.04v-1.7
			c0-0.04,0.01-0.07,0.03-0.1c0.02-0.02,0.05-0.04,0.09-0.04c0.03,0,0.06,0.01,0.08,0.04C23.32,34.6,23.33,34.63,23.33,34.67
			L23.33,34.67z M25.4,34.77h-0.08v1.36h0.08c0.02,0,0.05-0.01,0.07-0.02c0.02-0.01,0.04-0.03,0.05-0.05l0.24-0.49
			c0.01-0.02,0.01-0.03,0.02-0.05c0-0.02,0.01-0.04,0.01-0.06c0-0.02,0-0.04-0.01-0.06c0-0.02-0.01-0.04-0.02-0.05l-0.24-0.49
			c-0.01-0.02-0.03-0.04-0.05-0.06C25.44,34.78,25.42,34.77,25.4,34.77L25.4,34.77z M25.4,34.53c0.07,0,0.14,0.02,0.19,0.05
			c0.05,0.04,0.1,0.09,0.14,0.17l0.25,0.49c0.01,0.03,0.02,0.06,0.03,0.09c0.01,0.03,0.01,0.07,0.01,0.11c0,0.04,0,0.08-0.01,0.11
			c-0.01,0.03-0.02,0.07-0.03,0.09l-0.25,0.49c-0.04,0.08-0.08,0.13-0.14,0.17c-0.05,0.04-0.12,0.05-0.19,0.05h-0.42
			c-0.04,0-0.07-0.01-0.1-0.03c-0.02-0.02-0.04-0.05-0.04-0.09c0-0.03,0.01-0.06,0.04-0.09c0.02-0.02,0.06-0.03,0.1-0.03h0.1v-1.36
			h-0.1c-0.04,0-0.07-0.01-0.1-0.03c-0.02-0.02-0.04-0.05-0.04-0.09c0-0.04,0.01-0.06,0.04-0.09c0.02-0.02,0.06-0.03,0.1-0.03H25.4
			L25.4,34.53z M26.59,34.53h1.04c0.04,0,0.07,0.01,0.1,0.03c0.02,0.02,0.04,0.05,0.04,0.09c0,0.03-0.01,0.06-0.04,0.08
			c-0.02,0.02-0.06,0.03-0.1,0.03h-0.8v0.56h0.34c0.04,0,0.07,0.01,0.09,0.03c0.02,0.02,0.04,0.05,0.04,0.09
			c0,0.03-0.01,0.06-0.04,0.09c-0.02,0.02-0.06,0.03-0.09,0.03h-0.34v0.56h0.8c0.04,0,0.07,0.01,0.1,0.03
			c0.02,0.02,0.04,0.05,0.04,0.09c0,0.03-0.01,0.06-0.04,0.09c-0.02,0.02-0.06,0.03-0.1,0.03h-1.04L26.59,34.53L26.59,34.53z
			 M28.58,34.77v0.36h0.57c0.03,0,0.06-0.01,0.08-0.04c0.02-0.02,0.04-0.05,0.04-0.08v-0.12c0-0.03-0.01-0.06-0.04-0.08
			c-0.02-0.02-0.05-0.04-0.08-0.04L28.58,34.77L28.58,34.77z M28.35,34.53h0.81c0.1,0,0.18,0.03,0.25,0.11
			c0.07,0.07,0.11,0.15,0.11,0.25v0.12c0,0.1-0.03,0.18-0.11,0.25c-0.07,0.07-0.15,0.11-0.25,0.11h-0.13l0.46,0.81
			c0.01,0.01,0.01,0.03,0.02,0.04c0,0.01,0.01,0.02,0.01,0.03c0,0.03-0.01,0.06-0.03,0.08c-0.02,0.02-0.05,0.03-0.08,0.03
			c-0.02,0-0.04-0.01-0.06-0.02c-0.02-0.01-0.03-0.03-0.05-0.05l-0.53-0.93h-0.17v0.86c0,0.04-0.01,0.07-0.03,0.1
			c-0.02,0.02-0.05,0.04-0.09,0.04c-0.03,0-0.06-0.01-0.09-0.04c-0.02-0.03-0.03-0.06-0.03-0.1V34.53L28.35,34.53z M30.97,34.53
			h0.31l0.62,1.41v-1.28c0-0.04,0.01-0.07,0.03-0.1c0.02-0.02,0.05-0.04,0.09-0.04c0.03,0,0.06,0.01,0.08,0.04
			c0.02,0.03,0.03,0.06,0.03,0.1v1.7h-0.32l-0.62-1.41v1.28c0,0.04-0.01,0.07-0.03,0.1c-0.02,0.02-0.05,0.04-0.09,0.04
			c-0.03,0-0.06-0.01-0.09-0.04c-0.02-0.03-0.03-0.06-0.03-0.1L30.97,34.53L30.97,34.53z M33.31,35.08l-0.19,0.65h0.38L33.31,35.08
			L33.31,35.08z M33.44,34.67l0.45,1.54c0,0.01,0.01,0.02,0.01,0.02c0,0.01,0,0.02,0,0.02c0,0.03-0.01,0.06-0.03,0.08
			c-0.02,0.02-0.05,0.03-0.08,0.03c-0.03,0-0.05-0.01-0.07-0.03c-0.02-0.02-0.04-0.04-0.04-0.07l-0.09-0.3h-0.52l-0.09,0.3
			c-0.01,0.03-0.03,0.06-0.05,0.08c-0.02,0.02-0.04,0.02-0.08,0.02c-0.03,0-0.06-0.01-0.08-0.03c-0.02-0.02-0.03-0.05-0.03-0.08
			c0-0.01,0-0.02,0-0.03c0-0.01,0-0.01,0-0.02l0.45-1.54c0.01-0.05,0.03-0.08,0.05-0.1c0.02-0.02,0.05-0.03,0.08-0.03
			c0.03,0,0.06,0.01,0.08,0.03C33.4,34.58,33.42,34.61,33.44,34.67z M34.47,34.53h0.29l0.29,0.41l0.29-0.41h0.29v1.7
			c0,0.04-0.01,0.07-0.03,0.1c-0.02,0.02-0.05,0.04-0.09,0.04c-0.03,0-0.06-0.01-0.09-0.04c-0.02-0.03-0.03-0.06-0.03-0.1v-1.37
			l-0.23,0.32v0.05c0,0.04-0.01,0.07-0.03,0.1c-0.02,0.02-0.05,0.04-0.09,0.04c-0.03,0-0.06-0.01-0.09-0.04
			c-0.02-0.03-0.03-0.06-0.03-0.1v-0.05l-0.23-0.32v1.37c0,0.04-0.01,0.07-0.03,0.1c-0.02,0.02-0.05,0.04-0.09,0.04
			s-0.06-0.01-0.09-0.04c-0.02-0.03-0.03-0.06-0.03-0.1L34.47,34.53L34.47,34.53z M36.22,34.53h1.04c0.04,0,0.07,0.01,0.1,0.03
			c0.02,0.02,0.04,0.05,0.04,0.09c0,0.03-0.01,0.06-0.04,0.08c-0.03,0.02-0.06,0.03-0.1,0.03h-0.8v0.56h0.34
			c0.04,0,0.07,0.01,0.09,0.03c0.02,0.02,0.04,0.05,0.04,0.09c0,0.03-0.01,0.06-0.04,0.09c-0.02,0.02-0.06,0.03-0.09,0.03h-0.34
			v0.56h0.8c0.04,0,0.07,0.01,0.1,0.03c0.02,0.02,0.04,0.05,0.04,0.09c0,0.03-0.01,0.06-0.04,0.09c-0.03,0.02-0.06,0.03-0.1,0.03
			h-1.04V34.53L36.22,34.53z"/>
		<path class="st7" d="M12.83,31.64c0-0.08-0.05-0.13-0.12-0.13c-0.07,0-0.12,0.05-0.12,0.13v1.35c0,0.2,0.16,0.36,0.36,0.36h0.46
			c0.2,0,0.36-0.16,0.36-0.36v-1.35c0-0.08-0.05-0.13-0.12-0.13c-0.07,0-0.12,0.05-0.12,0.13v1.35c0,0.06-0.06,0.12-0.12,0.12h-0.46
			c-0.06,0-0.12-0.05-0.12-0.12L12.83,31.64L12.83,31.64z M14.61,31.51c-0.15,0-0.27,0.12-0.27,0.27c0,0.07,0.03,0.12,0.07,0.19
			l0.85,1.1c0.01,0.01,0.01,0.01,0.01,0.02c0,0.02-0.01,0.03-0.03,0.03h-0.59c-0.03,0-0.07-0.03-0.08-0.06
			c-0.02-0.08-0.03-0.14-0.12-0.14c-0.07,0-0.12,0.05-0.12,0.13c0,0.15,0.14,0.31,0.32,0.31h0.59c0.15,0,0.27-0.12,0.27-0.27
			c0-0.07-0.03-0.12-0.07-0.19l-0.85-1.1c-0.01-0.01-0.01-0.01-0.01-0.02c0-0.01,0.01-0.03,0.03-0.03h0.59
			c0.03,0,0.07,0.03,0.08,0.06c0.02,0.08,0.03,0.14,0.12,0.14c0.07,0,0.12-0.05,0.12-0.13c0-0.15-0.14-0.31-0.32-0.31L14.61,31.51
			L14.61,31.51z M16.64,31.51h-0.42c-0.08,0-0.13,0.05-0.13,0.12c0,0.07,0.05,0.12,0.13,0.12h0.1v1.36h-0.1
			c-0.08,0-0.13,0.05-0.13,0.12c0,0.07,0.05,0.12,0.13,0.12h0.42c0.15,0,0.26-0.07,0.33-0.22l0.25-0.49
			c0.03-0.06,0.04-0.12,0.04-0.2c0-0.08-0.01-0.15-0.04-0.2l-0.25-0.49C16.9,31.58,16.8,31.51,16.64,31.51L16.64,31.51z
			 M16.64,31.75c0.05,0,0.09,0.03,0.11,0.08L17,32.31c0.01,0.03,0.02,0.07,0.02,0.11c0,0.05-0.01,0.08-0.02,0.11l-0.24,0.49
			c-0.02,0.05-0.07,0.07-0.11,0.07h-0.08v-1.36H16.64z"/>
		<path class="st3" d="M33.34,32.26V31.6h0.47v0.08h-0.39v0.2h0.36v0.08h-0.36v0.22h0.4v0.08L33.34,32.26L33.34,32.26z M33.88,32.26
			l0.25-0.34l-0.22-0.32h0.1l0.12,0.17c0.02,0.03,0.04,0.06,0.05,0.08c0.01-0.02,0.03-0.05,0.05-0.07l0.13-0.17h0.1l-0.23,0.31
			l0.25,0.34h-0.11l-0.17-0.23c-0.01-0.01-0.02-0.03-0.03-0.04c-0.01,0.02-0.03,0.04-0.03,0.05l-0.17,0.23H33.88L33.88,32.26z
			 M34.56,32.26V31.6h0.25c0.04,0,0.08,0,0.1,0.01c0.03,0.01,0.06,0.02,0.08,0.03c0.02,0.02,0.04,0.04,0.05,0.06
			c0.01,0.03,0.02,0.06,0.02,0.09c0,0.06-0.02,0.1-0.05,0.14c-0.04,0.04-0.1,0.06-0.19,0.06h-0.17v0.27L34.56,32.26L34.56,32.26z
			 M34.64,31.91h0.17c0.06,0,0.1-0.01,0.12-0.03c0.02-0.02,0.04-0.05,0.04-0.09c0-0.03-0.01-0.05-0.02-0.07
			c-0.01-0.02-0.03-0.03-0.05-0.04c-0.01,0-0.04-0.01-0.08-0.01h-0.17V31.91L34.64,31.91z M35.18,32.26V31.6h0.09v0.66H35.18z
			 M35.42,32.26V31.6h0.29c0.06,0,0.1,0.01,0.13,0.02c0.03,0.01,0.05,0.03,0.07,0.06c0.02,0.03,0.03,0.06,0.03,0.1
			c0,0.05-0.02,0.09-0.05,0.12c-0.03,0.03-0.08,0.05-0.14,0.06c0.02,0.01,0.04,0.02,0.05,0.03c0.03,0.02,0.05,0.05,0.07,0.09
			L36,32.26h-0.11l-0.09-0.14c-0.03-0.04-0.05-0.07-0.06-0.09c-0.02-0.02-0.03-0.04-0.04-0.04c-0.01-0.01-0.03-0.01-0.04-0.02
			c-0.01,0-0.03,0-0.05,0h-0.1v0.29H35.42L35.42,32.26z M35.51,31.89h0.19c0.04,0,0.07,0,0.09-0.01c0.02-0.01,0.04-0.02,0.05-0.04
			c0.01-0.02,0.02-0.04,0.02-0.06c0-0.03-0.01-0.06-0.03-0.08c-0.02-0.02-0.06-0.03-0.11-0.03h-0.21V31.89L35.51,31.89z
			 M36.09,32.26V31.6h0.47v0.08h-0.39v0.2h0.36v0.08h-0.36v0.22h0.4v0.08L36.09,32.26L36.09,32.26z M36.67,32.05l0.08-0.01
			c0,0.03,0.01,0.06,0.03,0.08c0.01,0.02,0.04,0.04,0.07,0.05c0.03,0.01,0.06,0.02,0.1,0.02c0.03,0,0.06-0.01,0.09-0.01
			c0.03-0.01,0.04-0.02,0.06-0.04c0.01-0.02,0.02-0.04,0.02-0.06c0-0.02-0.01-0.04-0.02-0.05c-0.01-0.02-0.03-0.03-0.06-0.04
			c-0.02-0.01-0.06-0.02-0.12-0.03c-0.06-0.01-0.1-0.03-0.13-0.04c-0.03-0.02-0.05-0.04-0.07-0.06c-0.02-0.02-0.02-0.05-0.02-0.08
			c0-0.03,0.01-0.06,0.03-0.09c0.02-0.03,0.05-0.05,0.08-0.07c0.04-0.01,0.08-0.02,0.12-0.02c0.05,0,0.09,0.01,0.13,0.02
			c0.04,0.02,0.07,0.04,0.09,0.07c0.02,0.03,0.03,0.07,0.03,0.1l-0.08,0.01c0-0.04-0.02-0.07-0.05-0.09
			c-0.03-0.02-0.06-0.03-0.11-0.03c-0.05,0-0.09,0.01-0.11,0.03c-0.02,0.02-0.04,0.04-0.04,0.07c0,0.02,0.01,0.04,0.03,0.06
			c0.02,0.02,0.06,0.03,0.13,0.05c0.07,0.02,0.12,0.03,0.15,0.04c0.04,0.02,0.07,0.04,0.08,0.07c0.02,0.03,0.03,0.06,0.03,0.09
			c0,0.03-0.01,0.07-0.03,0.1c-0.02,0.03-0.05,0.05-0.09,0.07c-0.04,0.02-0.08,0.03-0.13,0.03c-0.06,0-0.11-0.01-0.15-0.03
			c-0.04-0.02-0.07-0.04-0.09-0.08C36.68,32.13,36.67,32.09,36.67,32.05L36.67,32.05z M34.35,33.28v-0.66h0.47v0.08h-0.39v0.2h0.36
			v0.08h-0.36v0.22h0.4v0.08L34.35,33.28L34.35,33.28z M34.96,33.28v-0.66h0.09l0.34,0.51v-0.51h0.08v0.66h-0.09l-0.34-0.51v0.51
			H34.96z M35.63,33.28v-0.66h0.23c0.05,0,0.09,0,0.12,0.01c0.04,0.01,0.07,0.02,0.1,0.05c0.03,0.03,0.06,0.07,0.08,0.11
			c0.02,0.05,0.03,0.1,0.03,0.16c0,0.05-0.01,0.09-0.02,0.13c-0.01,0.04-0.03,0.07-0.04,0.1c-0.02,0.03-0.04,0.05-0.06,0.06
			c-0.02,0.01-0.05,0.03-0.08,0.03c-0.03,0.01-0.07,0.01-0.11,0.01L35.63,33.28L35.63,33.28z M35.71,33.2h0.14
			c0.04,0,0.08,0,0.1-0.01c0.02-0.01,0.04-0.02,0.06-0.03c0.02-0.02,0.04-0.05,0.05-0.08c0.01-0.03,0.02-0.08,0.02-0.13
			c0-0.07-0.01-0.12-0.03-0.16c-0.02-0.04-0.05-0.06-0.08-0.07c-0.02-0.01-0.06-0.01-0.11-0.01h-0.14L35.71,33.2L35.71,33.2z"/>
		<path class="st7" d="M37.92,31.51c-0.08,0-0.13,0.05-0.13,0.12c0,0.07,0.05,0.12,0.13,0.12h0.33v1.36h-0.33
			c-0.08,0-0.13,0.05-0.13,0.12c0,0.07,0.05,0.12,0.13,0.12h0.91c0.08,0,0.13-0.05,0.13-0.12v-0.59c0-0.08-0.05-0.13-0.12-0.13
			c-0.07,0-0.12,0.05-0.12,0.13v0.47H38.5v-1.6H37.92z M39.67,31.51c-0.08,0-0.13,0.05-0.13,0.12c0,0.07,0.05,0.12,0.13,0.12h0.33
			v1.36h-0.33c-0.08,0-0.13,0.05-0.13,0.12c0,0.07,0.05,0.12,0.13,0.12h0.91c0.08,0,0.13-0.05,0.13-0.12v-0.59
			c0-0.08-0.05-0.13-0.12-0.13c-0.07,0-0.12,0.05-0.12,0.13v0.47h-0.23v-1.6H39.67L39.67,31.51z M42.44,31.7
			c0.01-0.02,0.02-0.05,0.02-0.07c0-0.07-0.06-0.12-0.12-0.12c-0.05,0-0.08,0.02-0.11,0.07l-0.92,1.58
			c-0.01,0.02-0.02,0.05-0.02,0.07c0,0.07,0.05,0.12,0.12,0.12c0.05,0,0.08-0.02,0.11-0.07L42.44,31.7z M43.17,31.51
			c-0.08,0-0.13,0.05-0.13,0.12c0,0.07,0.05,0.12,0.13,0.12h0.8v0.44c0,0.06-0.05,0.12-0.12,0.12h-0.45c-0.08,0-0.13,0.05-0.13,0.12
			c0,0.07,0.05,0.12,0.13,0.12h0.45c0.07,0,0.12,0.06,0.12,0.12v0.44h-0.8c-0.08,0-0.13,0.05-0.13,0.12c0,0.07,0.05,0.12,0.13,0.12
			h0.8c0.13,0,0.24-0.11,0.24-0.24v-0.44c0-0.08-0.03-0.16-0.09-0.24c0.06-0.08,0.09-0.15,0.09-0.24v-0.44
			c0-0.13-0.11-0.24-0.24-0.24L43.17,31.51L43.17,31.51z M45.03,31.51v1.04h0.7v0.56H45.2c-0.02,0-0.03-0.01-0.04-0.01l-0.18-0.07
			c-0.02-0.01-0.04-0.01-0.06-0.01c-0.07,0-0.12,0.05-0.12,0.12c0,0.05,0.03,0.09,0.08,0.12l0.19,0.08
			c0.04,0.02,0.09,0.03,0.14,0.03h0.53c0.13,0,0.24-0.11,0.24-0.24v-0.56c0-0.13-0.11-0.24-0.24-0.24h-0.46v-0.56h0.57
			c0.08,0,0.13-0.05,0.13-0.12c0-0.07-0.05-0.12-0.13-0.12H45.03L45.03,31.51z"/>
	</g>
</g>
</svg>
