<?xml version="1.0" encoding="utf-8"?>
<!-- Generator: Adobe Illustrator 27.0.1, SVG Export Plug-In . SVG Version: 6.00 Build 0)  -->
<svg version="1.1" id="Layer_1" xmlns="http://www.w3.org/2000/svg" xmlns:xlink="http://www.w3.org/1999/xlink" x="0px" y="0px"
	 viewBox="0 0 75.76 42.17" style="enable-background:new 0 0 75.76 42.17;" xml:space="preserve">
<style type="text/css">
	.st0{fill:url(#SVGID_1_);}
	.st1{fill:#FFFFFF;}
</style>
<g>
	<linearGradient id="SVGID_1_" gradientUnits="userSpaceOnUse" x1="6.9707" y1="21.0868" x2="68.7914" y2="21.0868">
		<stop  offset="0" style="stop-color:#FC802D"/>
		<stop  offset="1" style="stop-color:#FF9E5C"/>
	</linearGradient>
	<path class="st0" d="M64.49,36.92H11.28c0-2.38-1.93-4.31-4.31-4.31V9.56c2.38,0,4.31-1.93,4.31-4.31h53.21
		c0,2.38,1.93,4.31,4.31,4.31v23.05C66.41,32.61,64.49,34.54,64.49,36.92z"/>
	<g>
		<g>
			<path class="st1" d="M20.01,25.34c-0.02,0.05-0.04,0.09-0.07,0.12s-0.07,0.05-0.13,0.07c-0.05,0.02-0.12,0.03-0.21,0.04
				c-0.08,0.01-0.19,0.01-0.31,0.01c-0.09,0-0.18,0-0.25,0c-0.07,0-0.13-0.01-0.18-0.02s-0.1-0.02-0.13-0.03s-0.07-0.02-0.09-0.04
				c-0.03-0.02-0.05-0.04-0.06-0.06c-0.02-0.02-0.03-0.05-0.04-0.09l-2.74-7.79c-0.03-0.09-0.05-0.17-0.06-0.23
				c0-0.06,0.02-0.1,0.06-0.13c0.04-0.03,0.1-0.05,0.19-0.06c0.09-0.01,0.2-0.01,0.35-0.01c0.12,0,0.22,0,0.29,0.01
				c0.07,0.01,0.13,0.02,0.17,0.04c0.04,0.02,0.07,0.04,0.09,0.07c0.02,0.03,0.04,0.06,0.06,0.11l2.4,7.06h0.01l2.34-7.04
				c0.01-0.05,0.03-0.09,0.05-0.12c0.02-0.03,0.05-0.05,0.09-0.07c0.04-0.02,0.1-0.03,0.18-0.04c0.08-0.01,0.18-0.01,0.31-0.01
				c0.13,0,0.24,0.01,0.32,0.02c0.08,0.01,0.13,0.03,0.16,0.06c0.03,0.03,0.04,0.07,0.03,0.13s-0.03,0.13-0.06,0.23L20.01,25.34z"/>
			<path class="st1" d="M28.89,22.4c0,0.48-0.06,0.91-0.19,1.31c-0.13,0.4-0.31,0.74-0.56,1.03c-0.25,0.29-0.56,0.52-0.93,0.68
				c-0.37,0.16-0.81,0.24-1.3,0.24c-0.48,0-0.9-0.07-1.25-0.21s-0.65-0.35-0.89-0.62c-0.24-0.27-0.42-0.6-0.53-0.99
				c-0.12-0.39-0.18-0.83-0.18-1.32c0-0.48,0.06-0.91,0.18-1.31c0.12-0.4,0.31-0.74,0.56-1.03c0.25-0.29,0.56-0.51,0.93-0.67
				c0.37-0.16,0.81-0.24,1.3-0.24c0.48,0,0.9,0.07,1.25,0.21c0.36,0.14,0.65,0.35,0.89,0.62c0.24,0.27,0.42,0.6,0.53,0.99
				C28.83,21.47,28.89,21.91,28.89,22.4z M27.79,22.47c0-0.31-0.03-0.61-0.09-0.89c-0.06-0.28-0.16-0.53-0.29-0.74
				c-0.14-0.21-0.32-0.38-0.55-0.5s-0.52-0.18-0.86-0.18c-0.32,0-0.59,0.06-0.82,0.17c-0.23,0.11-0.42,0.27-0.57,0.48
				c-0.15,0.21-0.26,0.45-0.33,0.73c-0.07,0.28-0.11,0.59-0.11,0.92c0,0.32,0.03,0.62,0.09,0.9c0.06,0.28,0.16,0.53,0.29,0.74
				c0.14,0.21,0.32,0.38,0.55,0.5s0.52,0.18,0.86,0.18c0.31,0,0.59-0.06,0.82-0.17s0.42-0.27,0.57-0.47
				c0.15-0.2,0.26-0.44,0.33-0.73C27.75,23.11,27.79,22.8,27.79,22.47z"/>
			<path class="st1" d="M35.46,25.38c0,0.04-0.01,0.06-0.02,0.09s-0.04,0.04-0.08,0.06c-0.04,0.02-0.09,0.03-0.15,0.04
				c-0.06,0.01-0.14,0.01-0.23,0.01c-0.1,0-0.18,0-0.24-0.01s-0.11-0.02-0.15-0.04s-0.06-0.04-0.07-0.06
				c-0.01-0.02-0.02-0.05-0.02-0.09v-0.77c-0.33,0.37-0.66,0.63-0.98,0.8c-0.32,0.17-0.65,0.25-0.98,0.25
				c-0.39,0-0.72-0.06-0.98-0.19c-0.27-0.13-0.48-0.31-0.64-0.53c-0.16-0.22-0.28-0.48-0.35-0.78s-0.11-0.66-0.11-1.08v-3.54
				c0-0.03,0.01-0.06,0.02-0.09c0.02-0.02,0.04-0.05,0.09-0.07c0.04-0.02,0.1-0.03,0.17-0.04c0.07-0.01,0.16-0.01,0.26-0.01
				c0.1,0,0.19,0,0.26,0.01c0.07,0.01,0.12,0.02,0.17,0.04s0.07,0.04,0.09,0.07c0.02,0.02,0.03,0.05,0.03,0.09v3.4
				c0,0.34,0.02,0.61,0.07,0.82s0.13,0.38,0.23,0.52c0.1,0.15,0.23,0.26,0.39,0.34c0.16,0.08,0.34,0.12,0.54,0.12
				c0.27,0,0.53-0.09,0.8-0.29c0.27-0.19,0.55-0.47,0.85-0.84v-4.08c0-0.03,0.01-0.06,0.02-0.09c0.01-0.02,0.04-0.05,0.09-0.07
				c0.04-0.02,0.1-0.03,0.17-0.04c0.07-0.01,0.15-0.01,0.26-0.01c0.1,0,0.19,0,0.26,0.01c0.07,0.01,0.12,0.02,0.16,0.04
				s0.07,0.04,0.09,0.07c0.02,0.02,0.03,0.05,0.03,0.09V25.38z"/>
			<path class="st1" d="M41.63,24.49c0,0.07,0,0.14-0.01,0.19c0,0.05-0.01,0.1-0.02,0.14c-0.01,0.04-0.02,0.07-0.04,0.1
				s-0.05,0.07-0.1,0.12c-0.05,0.05-0.15,0.12-0.28,0.2c-0.13,0.08-0.28,0.15-0.44,0.21s-0.34,0.11-0.53,0.15
				c-0.19,0.04-0.39,0.06-0.59,0.06c-0.42,0-0.79-0.07-1.11-0.21c-0.32-0.14-0.6-0.34-0.81-0.61c-0.22-0.27-0.38-0.59-0.5-0.98
				c-0.11-0.39-0.17-0.83-0.17-1.34c0-0.57,0.07-1.07,0.21-1.48c0.14-0.41,0.33-0.75,0.58-1.01c0.24-0.26,0.53-0.46,0.86-0.59
				c0.33-0.13,0.69-0.19,1.07-0.19c0.19,0,0.37,0.02,0.54,0.05c0.18,0.04,0.34,0.08,0.48,0.14c0.15,0.06,0.28,0.12,0.39,0.19
				c0.11,0.07,0.2,0.14,0.25,0.19c0.05,0.05,0.09,0.09,0.11,0.12c0.02,0.03,0.04,0.07,0.05,0.11s0.02,0.09,0.03,0.14
				s0.01,0.12,0.01,0.19c0,0.17-0.02,0.29-0.06,0.35s-0.09,0.1-0.14,0.1c-0.06,0-0.14-0.04-0.22-0.11
				c-0.08-0.07-0.19-0.15-0.32-0.24c-0.13-0.09-0.29-0.17-0.47-0.24s-0.4-0.11-0.65-0.11c-0.51,0-0.91,0.2-1.18,0.59
				c-0.27,0.39-0.41,0.97-0.41,1.72c0,0.38,0.04,0.71,0.11,0.99c0.07,0.28,0.18,0.52,0.31,0.71c0.14,0.19,0.31,0.33,0.51,0.42
				c0.2,0.09,0.43,0.14,0.69,0.14c0.25,0,0.46-0.04,0.65-0.12c0.19-0.08,0.35-0.16,0.48-0.26c0.14-0.09,0.25-0.18,0.34-0.25
				C41.33,24.03,41.4,24,41.46,24c0.03,0,0.06,0.01,0.08,0.03c0.02,0.02,0.04,0.05,0.06,0.09s0.03,0.09,0.03,0.16
				C41.63,24.33,41.63,24.4,41.63,24.49z"/>
			<path class="st1" d="M48.07,25.38c0,0.04-0.01,0.06-0.03,0.09c-0.02,0.02-0.05,0.04-0.08,0.06c-0.04,0.02-0.09,0.03-0.16,0.04
				c-0.07,0.01-0.16,0.01-0.26,0.01c-0.11,0-0.2,0-0.27-0.01s-0.12-0.02-0.16-0.04s-0.07-0.04-0.08-0.06S47,25.41,47,25.38v-3.41
				c0-0.33-0.03-0.6-0.08-0.8s-0.13-0.38-0.23-0.52c-0.1-0.15-0.23-0.26-0.39-0.34c-0.16-0.08-0.34-0.12-0.55-0.12
				c-0.27,0-0.54,0.1-0.8,0.29c-0.27,0.19-0.55,0.47-0.84,0.84v4.08c0,0.04-0.01,0.06-0.03,0.09c-0.02,0.02-0.05,0.04-0.08,0.06
				s-0.09,0.03-0.16,0.04c-0.07,0.01-0.16,0.01-0.27,0.01c-0.1,0-0.19,0-0.26-0.01c-0.07-0.01-0.12-0.02-0.17-0.04
				s-0.07-0.04-0.08-0.06s-0.02-0.05-0.02-0.09v-8.66c0-0.04,0.01-0.07,0.02-0.09c0.02-0.03,0.04-0.05,0.08-0.07
				c0.04-0.02,0.1-0.03,0.17-0.04c0.07-0.01,0.16-0.01,0.26-0.01c0.11,0,0.2,0,0.27,0.01c0.07,0.01,0.12,0.02,0.16,0.04
				c0.04,0.02,0.07,0.04,0.08,0.07c0.02,0.03,0.03,0.06,0.03,0.09v3.49c0.31-0.32,0.62-0.57,0.93-0.72
				c0.31-0.16,0.62-0.24,0.94-0.24c0.39,0,0.72,0.07,0.98,0.2s0.48,0.31,0.64,0.53c0.16,0.22,0.28,0.48,0.35,0.77
				s0.11,0.65,0.11,1.07V25.38z"/>
			<path class="st1" d="M55,22.21c0,0.17-0.04,0.29-0.13,0.36c-0.08,0.07-0.18,0.11-0.29,0.11h-3.84c0,0.32,0.03,0.62,0.1,0.87
				c0.06,0.26,0.17,0.48,0.33,0.67c0.15,0.19,0.35,0.33,0.59,0.43c0.24,0.1,0.54,0.15,0.89,0.15c0.28,0,0.53-0.02,0.74-0.07
				c0.22-0.05,0.41-0.1,0.56-0.15c0.16-0.06,0.29-0.11,0.39-0.15c0.1-0.05,0.18-0.07,0.23-0.07c0.03,0,0.06,0.01,0.08,0.02
				c0.02,0.02,0.04,0.04,0.06,0.07c0.01,0.03,0.02,0.07,0.03,0.13c0.01,0.05,0.01,0.12,0.01,0.2c0,0.06,0,0.1-0.01,0.15
				s-0.01,0.08-0.02,0.11c-0.01,0.03-0.02,0.06-0.03,0.09c-0.01,0.03-0.03,0.05-0.06,0.08c-0.02,0.02-0.09,0.06-0.21,0.12
				c-0.12,0.05-0.27,0.11-0.45,0.16c-0.19,0.05-0.4,0.1-0.64,0.14s-0.5,0.06-0.78,0.06c-0.48,0-0.9-0.07-1.26-0.2
				c-0.36-0.13-0.66-0.33-0.91-0.6c-0.25-0.26-0.43-0.59-0.56-0.99c-0.13-0.4-0.19-0.86-0.19-1.39c0-0.5,0.07-0.95,0.19-1.35
				c0.13-0.4,0.32-0.74,0.56-1.02c0.24-0.28,0.54-0.49,0.88-0.64c0.35-0.15,0.73-0.22,1.16-0.22c0.46,0,0.85,0.07,1.17,0.22
				c0.32,0.15,0.59,0.34,0.79,0.59c0.21,0.25,0.36,0.54,0.46,0.88c0.1,0.33,0.15,0.69,0.15,1.07V22.21z M53.92,21.89
				c0.01-0.56-0.11-1-0.37-1.32c-0.26-0.32-0.65-0.48-1.17-0.48c-0.26,0-0.5,0.05-0.7,0.15s-0.37,0.23-0.5,0.4s-0.24,0.36-0.31,0.57
				c-0.07,0.22-0.12,0.45-0.12,0.68H53.92z"/>
			<path class="st1" d="M60.03,19.93c0,0.09,0,0.17-0.01,0.24s-0.01,0.12-0.03,0.15c-0.01,0.04-0.03,0.06-0.05,0.08
				s-0.05,0.03-0.08,0.03c-0.04,0-0.08-0.01-0.13-0.03c-0.05-0.02-0.11-0.04-0.17-0.06c-0.06-0.02-0.13-0.04-0.21-0.06
				c-0.08-0.02-0.16-0.03-0.25-0.03c-0.11,0-0.21,0.02-0.32,0.06c-0.1,0.04-0.21,0.11-0.33,0.21c-0.11,0.1-0.23,0.23-0.36,0.4
				s-0.26,0.36-0.41,0.6v3.83c0,0.04-0.01,0.06-0.03,0.09s-0.04,0.04-0.08,0.06s-0.09,0.03-0.16,0.04s-0.16,0.01-0.27,0.01
				c-0.1,0-0.19,0-0.26-0.01c-0.07-0.01-0.12-0.02-0.17-0.04s-0.07-0.04-0.08-0.06c-0.01-0.02-0.02-0.05-0.02-0.09v-5.83
				c0-0.03,0.01-0.06,0.02-0.09c0.01-0.02,0.04-0.05,0.08-0.07c0.04-0.02,0.09-0.03,0.15-0.04c0.06-0.01,0.14-0.01,0.24-0.01
				c0.1,0,0.17,0,0.24,0.01c0.06,0.01,0.11,0.02,0.15,0.04c0.03,0.02,0.06,0.04,0.07,0.07c0.02,0.02,0.02,0.05,0.02,0.09v0.85
				c0.16-0.23,0.31-0.42,0.45-0.57c0.14-0.15,0.27-0.26,0.4-0.35c0.12-0.08,0.25-0.14,0.37-0.18c0.12-0.03,0.25-0.05,0.37-0.05
				c0.06,0,0.12,0,0.19,0.01c0.07,0.01,0.15,0.02,0.22,0.04c0.08,0.02,0.15,0.04,0.21,0.06s0.11,0.04,0.13,0.06
				c0.03,0.02,0.04,0.04,0.05,0.06s0.02,0.04,0.02,0.07c0.01,0.03,0.01,0.08,0.01,0.13C60.03,19.75,60.03,19.83,60.03,19.93z"/>
		</g>
	</g>
</g>
</svg>
